<svg class="img-fluid" id="outputsvg" xmlns="http://www.w3.org/2000/svg" width="816" height="300" viewBox="0 0 8160 3000"><g id="lq6tzjIwuwzgI3rc52sWU9" fill="rgb(250,77,6)" style="transform: none;"><g><path id="p18LO5rPoF" d="M5284 2991 c-27 -12 -37 -37 -24 -62 20 -36 81 -11 66 27 -11 28 28 11 42 -18 17 -37 102 -380 96 -390 -3 -4 -14 -8 -25 -8 -10 0 -19 -7 -19 -15 0 -10 10 -15 30 -15 27 0 31 -4 41 -46 22 -86 110 -145 175 -115 32 14 34 66 4 76 -28 9 -53 -13 -47 -41 7 -40 -40 -7 -57 40 -31 86 -31 86 8 86 25 0 36 4 36 15 0 11 -11 15 -38 15 l-37 0 -47 186 c-26 103 -54 197 -63 210 -30 47 -98 73 -141 55z"></path><path id="pGFlxTbVw" d="M7110 2975 c0 -9 9 -15 25 -15 28 0 25 7 80 -220 20 -80 38 -153 41 -162 4 -14 -1 -18 -25 -18 -31 0 -41 -13 -20 -25 6 -4 35 -13 66 -20 l55 -13 -5 28 c-4 15 -9 41 -12 56 -6 25 -2 23 25 -18 75 -110 171 -75 156 57 -9 82 -36 144 -81 191 -36 38 -47 44 -83 44 -28 0 -47 -6 -60 -20 -19 -20 -19 -20 -32 37 -7 32 -15 64 -17 71 -4 8 5 12 26 12 21 0 31 5 31 15 0 12 -16 15 -85 15 -69 0 -85 -3 -85 -15z m258 -178 c29 -30 50 -83 61 -153 15 -96 -13 -121 -67 -60 -59 68 -110 204 -85 229 15 16 70 6 91 -16z"></path><path id="pbN3jqE8W" d="M1445 2789 c-263 -208 -303 -239 -308 -239 -2 0 -85 39 -183 86 -98 47 -185 86 -194 87 -8 0 -162 -117 -342 -261 l-326 -261 14 -48 c8 -26 48 -158 89 -293 41 -135 80 -266 88 -291 l14 -46 -143 -177 c-79 -98 -144 -183 -144 -189 0 -9 158 -309 391 -745 18 -33 28 -42 49 -42 37 0 466 29 517 35 l41 4 122 -205 c93 -156 126 -204 139 -200 31 10 110 27 486 106 209 44 387 83 396 85 9 3 20 26 27 58 7 28 35 150 64 269 l51 217 131 30 c72 16 185 42 251 57 66 14 123 29 126 33 4 3 16 98 28 211 12 113 32 313 46 445 14 132 25 247 25 256 0 11 -86 61 -262 154 -145 75 -264 138 -265 139 -1 1 16 105 37 231 30 176 37 231 27 237 -31 19 -824 368 -837 368 -8 -1 -78 -50 -155 -111z m-9 -868 c54 -21 164 -64 244 -96 80 -31 148 -60 153 -64 12 -11 -24 -545 -37 -553 -6 -4 -40 -14 -76 -23 -36 -8 -144 -36 -240 -61 -96 -26 -184 -47 -194 -48 -14 -1 -56 56 -166 229 -123 190 -146 232 -137 246 47 66 334 409 343 409 5 0 55 -18 110 -39z"></path><path id="p13S64SSmP" d="M3417 2854 c-13 -13 -7 -24 16 -33 15 -6 47 -51 92 -127 189 -327 174 -304 205 -304 37 0 36 -5 51 233 11 168 14 189 31 198 15 8 17 13 7 25 -8 9 -32 14 -76 14 -56 0 -64 -2 -61 -17 2 -10 13 -19 26 -21 21 -3 23 -8 20 -60 l-3 -57 -80 -3 -80 -2 -32 60 c-31 57 -31 60 -12 60 14 0 19 5 17 18 -2 13 -15 18 -58 20 -31 2 -59 0 -63 -4z m302 -236 c-1 -29 -4 -78 -8 -108 l-6 -55 -58 101 c-31 56 -57 105 -57 108 0 3 29 6 65 6 l65 0 -1 -52z"></path><path id="pGSetq3BB" d="M4002 2843 c2 -9 14 -20 26 -23 21 -4 28 -22 67 -175 62 -245 59 -225 35 -225 -11 0 -20 -7 -20 -15 0 -12 16 -15 81 -15 60 0 80 3 77 13 -3 6 -16 13 -30 15 -19 2 -27 10 -31 30 -3 15 -12 55 -21 90 l-14 62 102 0 102 0 22 -84 c27 -101 27 -96 2 -96 -11 0 -20 -7 -20 -15 0 -12 16 -15 81 -15 59 0 80 3 77 12 -3 7 -15 15 -29 18 -22 5 -28 21 -71 190 -26 102 -47 191 -48 198 0 6 9 12 21 12 14 0 19 5 17 18 -3 14 -15 17 -78 17 -59 0 -75 -3 -75 -15 0 -8 11 -17 24 -20 21 -5 28 -17 43 -75 28 -111 33 -105 -82 -105 l-99 0 -11 43 c-6 23 -15 58 -21 77 -13 51 -11 60 12 60 14 0 19 5 17 18 -3 14 -16 17 -81 20 -70 3 -78 1 -75 -15z"></path><path id="p0Ha3aBZw" d="M4546 2844 c-21 -21 -21 -32 14 -159 16 -60 30 -113 30 -117 0 -5 -11 -8 -25 -8 -15 0 -25 -6 -25 -14 0 -10 22 -20 63 -29 34 -8 63 -13 65 -12 1 1 -15 68 -38 149 -22 80 -40 148 -40 151 0 3 11 5 24 5 26 0 83 -57 112 -112 10 -18 27 -67 39 -108 19 -68 23 -75 48 -78 16 -2 27 1 27 9 0 7 -16 75 -35 152 -20 77 -34 141 -32 143 2 2 19 -12 37 -31 32 -33 60 -45 60 -26 0 4 -19 29 -43 55 -31 32 -51 46 -70 46 -27 0 -50 -28 -43 -52 2 -7 7 -26 11 -43 6 -28 4 -27 -25 15 -18 25 -42 53 -54 62 -26 22 -80 23 -100 2z"></path><path id="pAOIhzvQc" d="M4897 2853 c-2 -5 20 -102 49 -218 29 -115 54 -216 54 -222 0 -7 -11 -13 -25 -13 -15 0 -25 -6 -25 -14 0 -16 13 -22 83 -35 42 -7 47 -7 43 8 -20 66 -65 255 -62 258 2 2 9 -10 16 -27 17 -40 75 -90 105 -90 14 0 32 11 45 28 50 63 1 255 -79 309 -47 32 -103 31 -129 -2 l-20 -25 -16 25 c-16 25 -31 32 -39 18z m176 -61 c31 -33 55 -96 63 -166 6 -60 -4 -81 -35 -71 -45 14 -139 193 -127 242 9 34 64 32 99 -5z"></path><path id="phsRlmqsp" d="M5647 2850 c-27 -17 -47 -65 -47 -113 0 -141 122 -266 222 -228 86 32 82 201 -6 298 -39 42 -46 46 -96 50 -30 2 -63 -1 -73 -7z m116 -50 c32 -38 72 -197 58 -233 -12 -30 -34 -39 -66 -27 -33 12 -55 49 -76 128 -22 77 -24 133 -7 150 22 22 65 14 91 -18z"></path><path id="pYrjVanUM" d="M5940 2843 c0 -10 15 -78 33 -150 l33 -133 -28 0 c-45 0 -34 -26 16 -39 25 -6 54 -11 65 -11 18 0 19 2 6 50 -7 28 -11 50 -9 50 2 0 13 -18 24 -40 40 -78 140 -93 140 -21 0 38 -30 57 -61 41 -16 -9 -19 -18 -15 -36 6 -23 5 -24 -14 -14 -25 13 -93 156 -118 246 -17 61 -22 69 -45 72 -21 3 -27 -1 -27 -15z"></path><path id="pXv6BGOY8" d="M6338 2854 c-13 -12 4 -34 26 -34 20 0 26 -15 69 -192 26 -106 47 -196 47 -200 0 -5 -9 -8 -21 -8 -12 0 -19 -5 -17 -12 3 -9 31 -14 81 -16 64 -2 77 0 77 13 0 9 -9 15 -25 15 -20 0 -26 7 -35 43 -6 23 -15 58 -21 77 -16 62 -18 61 93 58 l101 -3 18 -75 c24 -95 23 -100 -2 -100 -12 0 -19 -5 -17 -12 3 -9 31 -14 81 -16 64 -2 77 0 77 13 0 9 -9 15 -25 15 -27 0 -21 -16 -80 220 -20 80 -38 153 -41 163 -4 12 0 17 16 17 15 0 20 5 18 18 -3 14 -16 18 -76 20 -67 3 -72 1 -72 -18 0 -14 6 -20 24 -20 21 0 26 -7 41 -72 9 -40 19 -81 22 -90 4 -16 -5 -18 -99 -18 l-104 0 -19 78 c-10 42 -20 83 -22 90 -3 7 3 12 17 12 15 0 20 5 18 18 -3 14 -16 18 -74 20 -38 1 -73 0 -76 -4z"></path><path id="p1FpaEd4Bv" d="M6887 2835 c-32 -32 -40 -77 -27 -145 21 -110 92 -185 177 -185 33 0 49 6 70 28 25 25 28 35 28 95 0 130 -78 232 -177 232 -35 0 -51 -6 -71 -25z m126 -30 c16 -17 33 -54 46 -104 26 -97 27 -133 1 -156 -17 -15 -23 -16 -50 -5 -38 16 -62 60 -85 162 -15 61 -16 83 -7 103 16 34 60 34 95 0z"></path><path id="pnJLtSc66" d="M7570 2833 c-20 -25 -22 -37 -17 -99 6 -83 23 -127 67 -177 70 -80 190 -71 190 14 0 56 -79 109 -162 109 -24 0 -27 4 -34 46 -15 103 40 126 113 47 49 -52 68 -50 37 5 -47 82 -150 111 -194 55z m137 -194 c48 -18 66 -88 28 -103 -31 -11 -62 12 -83 62 -12 28 -22 53 -22 57 0 6 40 -2 77 -16z"></path><path id="p44JBJQWR" d="M4093 1989 c-60 -14 -119 -76 -139 -147 -23 -80 -16 -261 13 -317 42 -81 104 -115 208 -115 141 0 211 65 235 216 18 110 -2 227 -51 295 -44 62 -163 93 -266 68z m134 -133 l28 -24 0 -132 c0 -126 -1 -133 -24 -151 -30 -25 -85 -25 -110 0 -25 25 -35 90 -29 198 4 79 7 88 32 110 35 30 68 29 103 -1z"></path><path id="p1034oI27E" d="M4636 1988 c-56 -15 -119 -81 -137 -143 -8 -30 -14 -91 -13 -155 0 -119 18 -174 72 -225 42 -40 83 -53 164 -54 104 -1 164 32 205 112 35 69 44 223 19 311 -39 132 -162 193 -310 154z m139 -133 c24 -23 25 -30 25 -151 0 -117 -2 -130 -22 -151 -31 -33 -90 -32 -117 3 -18 24 -21 41 -21 141 0 150 13 178 88 182 13 0 34 -10 47 -24z"></path><path id="pWRR3ONVN" d="M5165 1993 c-66 -17 -110 -87 -126 -199 -24 -175 17 -325 101 -369 70 -36 174 -7 200 55 7 17 16 30 21 30 5 0 9 -72 9 -160 l0 -160 75 0 75 0 0 400 0 400 -75 0 -75 0 0 -45 c0 -52 -8 -56 -32 -15 -32 56 -101 81 -173 63z m171 -131 c26 -17 34 -56 34 -167 0 -111 -1 -117 -26 -142 -22 -21 -32 -25 -66 -20 -73 10 -83 30 -83 166 0 113 1 121 24 145 19 20 34 26 65 26 23 0 46 -4 52 -8z"></path><path id="pFgQMv9k7" d="M6586 1990 c-64 -20 -102 -94 -94 -181 10 -99 67 -141 203 -149 85 -5 90 -6 93 -29 14 -95 -77 -136 -152 -70 l-36 31 -45 -37 -45 -37 20 -28 c68 -96 284 -109 362 -23 40 43 48 87 48 248 l0 155 25 0 c25 0 26 2 23 58 l-3 57 -47 3 c-68 4 -113 -18 -128 -64 l-13 -38 -18 36 c-10 19 -30 43 -44 52 -31 20 -109 29 -149 16z m174 -118 c16 -13 24 -32 28 -70 l5 -52 -55 0 c-71 0 -93 16 -93 68 0 22 7 47 14 56 18 21 73 20 101 -2z"></path><path id="prHEZC2XS" d="M3440 1610 l0 -380 225 0 c124 0 225 3 226 8 13 139 21 132 -147 132 l-144 0 0 85 0 85 125 0 125 0 0 65 0 64 -122 3 -123 3 -5 155 -5 155 -77 3 -78 3 0 -381z"></path><path id="pixHfj0r2" d="M5890 1610 l0 -380 173 0 c94 0 190 5 212 11 82 23 133 112 121 212 -8 71 -34 109 -87 128 l-44 17 40 11 c85 23 119 71 118 168 -1 71 -31 145 -74 176 -41 30 -93 37 -281 37 l-178 0 0 -380z m358 228 c7 -7 12 -39 12 -74 0 -88 -8 -94 -126 -94 l-94 0 0 90 0 90 98 0 c63 0 102 -4 110 -12z m-24 -320 c19 -26 21 -87 4 -123 -11 -24 -15 -25 -100 -25 l-88 0 0 85 0 85 84 0 c76 0 86 -2 100 -22z"></path><path id="p18IdGuMhZ" d="M7080 1705 l0 -285 75 0 75 0 0 45 c0 46 14 60 25 26 3 -11 22 -34 42 -51 34 -30 40 -32 94 -28 45 3 65 10 85 29 57 53 59 64 59 314 l0 230 -70 0 -70 0 -5 -200 c-4 -131 -10 -208 -18 -222 -25 -46 -108 -37 -131 13 -7 16 -11 96 -11 219 l0 195 -75 0 -75 0 0 -285z"></path><path id="pfPay6jmJ" d="M7660 1590 l0 -400 75 0 75 0 2 238 3 237 34 -55 c18 -30 56 -85 83 -122 l50 -68 84 0 85 0 -86 111 -85 112 85 163 c47 89 85 167 85 173 0 7 -30 11 -80 11 l-80 0 -57 -121 -57 -121 -33 38 c-31 37 -33 43 -33 122 l0 82 -75 0 -75 0 0 -400z"></path><path id="pNm5UQVnV" d="M4156 979 c-72 -17 -106 -69 -106 -161 0 -112 64 -165 209 -175 l81 -6 0 -36 c0 -91 -87 -115 -160 -46 l-25 24 -45 -38 -45 -39 30 -32 c106 -112 317 -100 382 23 13 25 18 67 21 195 4 150 6 162 23 162 17 0 19 8 19 60 l0 60 -63 0 c-73 0 -102 -16 -112 -60 -8 -38 -16 -38 -35 2 -28 60 -95 85 -174 67z m158 -120 c22 -18 26 -28 26 -75 l0 -54 -41 0 c-41 0 -78 14 -91 34 -15 22 -8 76 12 96 26 26 60 25 94 -1z"></path><path id="ptMADsNDv" d="M5285 975 c-72 -26 -102 -86 -93 -184 9 -93 72 -138 210 -149 l83 -7 -2 -30 c-4 -61 -12 -74 -49 -84 -42 -12 -77 -1 -114 34 l-25 24 -45 -40 -45 -39 42 -39 c100 -96 280 -90 356 10 28 39 37 92 37 241 0 134 0 137 23 140 12 2 22 9 21 16 -1 6 -2 32 -2 57 l-2 45 -59 0 c-78 0 -90 -6 -111 -52 l-17 -39 -21 35 c-11 19 -31 41 -44 49 -36 23 -98 28 -143 12z m159 -107 c28 -12 34 -25 36 -78 3 -60 3 -60 -45 -60 -35 0 -52 6 -70 25 -31 30 -33 77 -5 105 23 23 48 25 84 8z"></path><path id="pFgbStWld" d="M6290 981 c-76 -15 -120 -71 -139 -175 -31 -168 6 -338 84 -386 77 -47 178 -26 212 44 9 20 20 36 25 36 4 0 8 -72 8 -160 l0 -160 75 0 75 0 0 395 0 395 -75 0 -75 0 0 -45 c0 -52 -12 -58 -30 -15 -23 56 -89 85 -160 71z m161 -140 c23 -18 24 -27 27 -145 4 -123 3 -126 -22 -151 -33 -33 -85 -34 -123 -1 -28 24 -28 25 -28 146 0 121 0 122 28 146 34 29 85 32 118 5z"></path><path id="pQyH7rPbq" d="M3440 594 l0 -375 204 3 c188 3 207 5 232 24 56 41 69 69 72 157 4 99 -16 140 -79 165 l-39 15 52 21 c41 16 57 30 75 61 39 68 28 184 -24 245 -47 57 -62 60 -288 60 l-205 0 0 -376z m364 224 c9 -12 16 -43 16 -68 0 -25 -7 -56 -16 -68 -14 -20 -23 -22 -110 -22 l-94 0 0 90 0 90 94 0 c87 0 96 -2 110 -22z m-33 -298 c16 -9 19 -22 19 -73 0 -88 -4 -91 -105 -96 l-85 -3 0 91 0 91 76 0 c41 0 84 -5 95 -10z"></path><path id="psXFZbkIP" d="M4674 936 l-34 -34 0 -361 0 -361 75 0 75 0 0 335 0 335 30 0 30 0 0 60 0 60 -71 0 c-67 0 -73 -2 -105 -34z"></path><path id="p16fkLYOnf" d="M4994 960 c-12 -4 -31 -21 -43 -36 -21 -26 -21 -34 -21 -384 l0 -358 58 -4 c101 -7 92 -41 92 338 l0 334 30 0 30 0 0 60 0 60 -62 -1 c-35 0 -73 -4 -84 -9z"></path><path id="poaxcdqmp" d="M5780 690 l0 -280 75 0 75 0 0 61 c0 62 13 73 24 19 9 -45 51 -80 97 -80 l39 0 0 75 0 75 -45 0 c-51 0 -99 20 -109 45 -3 9 -6 95 -6 191 l0 174 -75 0 -75 0 0 -280z"></path></g></g></svg>
