<svg xmlns="http://www.w3.org/2000/svg" width="174.826" height="178.787" aria-hidden="true" viewBox="0 0 174.826 178.787"><circle cx="87.414" cy="89.391" r="82.986" fill="#FFF"></circle><path fill="#a7a9ac" d="M4.427 89.391c0 3.362.223 6.669.612 9.927L113.64 37.329 95.825 6.828a84.094 84.094 0 0 0-8.412-.423c-45.831 0-82.986 37.154-82.986 82.986Z"></path><path fill="#ecb22b" d="m102.624 7.821 15.861 27.161 19.651-11.248a82.561 82.561 0 0 0-35.512-15.913Z"></path><path fill="#75a7d9" d="M143.258 28.008 121.21 40.346l39.089 68.848 5.171 8.418a82.827 82.827 0 0 0 4.93-28.221c0-24.325-10.467-46.205-27.142-61.383z"></path><path fill="#EE7523" d="m162.147 125.504-11.938-23.567-34.789-59.565L7.859 103.943l-1.91 1.249c7.381 38.271 41.039 67.185 81.465 67.185 32.887 0 61.303-19.133 74.733-46.873z"></path><path fill="#FFF" d="M52.854 105.731c1.789 0 3.447-.652 4.549-2.168l-1.792-1.275c-.809 1.035-1.759 1.481-2.741 1.481-2.518 0-4.188-1.929-4.188-4.532 0-2.429 1.67-4.356 4.188-4.356.845 0 1.674.254 2.567 1.205l1.689-1.242c-1.208-1.396-2.621-1.928-4.272-1.928-3.761 0-6.445 2.549-6.445 6.461-.001 3.807 2.684 6.354 6.445 6.354zm12.639 0c3.806-.067 6.492-2.618 6.492-6.427 0-3.91-2.687-6.459-6.492-6.389-3.756 0-6.444 2.549-6.444 6.461 0 3.808 2.689 6.355 6.444 6.355zm.017-10.85c2.532 0 4.203 1.928 4.203 4.356 0 2.604-1.671 4.532-4.203 4.532-2.519 0-4.186-1.929-4.186-4.532 0-2.429 1.667-4.356 4.186-4.356zm11.761.412h.033l3.704 10.132h1.518l3.703-10.132h.035v10.132h2.065V93.222h-3.272l-3.287 8.549-3.258-8.549h-3.311v12.203h2.07zm17.08 5.082h1.55c2.589 0 4.882-.553 4.882-3.619 0-2.705-2.138-3.533-4.501-3.533h-4.098v12.202h2.167v-5.05zm0-5.292h1.55c1.176 0 2.604.21 2.604 1.707 0 1.655-1.601 1.726-2.842 1.726H94.35v-3.433zm10.458 7.549h5.29l1.141 2.793h2.483l-5.258-12.202h-1.883l-5.302 12.202h2.425l1.104-2.793zm2.656-6.825 1.872 4.963h-3.784l1.912-4.963zm12.186 7.962a2.878 2.878 0 0 1-2.413-1.274l-1.637 1.583c.999 1.19 2.484 1.653 3.997 1.653 2.396 0 4.464-1.274 4.464-3.891 0-4.345-5.789-2.951-5.789-5.396 0-1.121.998-1.563 1.998-1.563.846 0 1.671.307 2.135.962l1.589-1.672c-.947-.896-2.227-1.255-3.5-1.255-2.259 0-4.496 1.17-4.496 3.686 0 4.361 5.79 2.826 5.79 5.498-.001 1.116-1.14 1.669-2.138 1.669zm10.76 0a2.883 2.883 0 0 1-2.413-1.274l-1.639 1.583c1.002 1.19 2.481 1.653 4.002 1.653 2.392 0 4.458-1.274 4.458-3.891 0-4.345-5.786-2.951-5.786-5.396 0-1.121 1-1.563 2-1.563.844 0 1.671.307 2.133.962l1.589-1.672c-.95-.896-2.225-1.255-3.501-1.255-2.255 0-4.499 1.17-4.499 3.686 0 4.361 5.791 2.826 5.791 5.498 0 1.116-1.133 1.669-2.135 1.669zM57.11 124.8v-12.199h-2.172v4.859h-5.705v-4.859h-2.17V124.8h2.17v-5.376h5.705v5.376zm10.008-12.508c-3.757 0-6.442 2.549-6.442 6.461 0 3.808 2.686 6.358 6.442 6.358 3.811-.072 6.5-2.621 6.5-6.427 0-3.914-2.689-6.461-6.5-6.392zm.016 10.854c-2.517 0-4.185-1.932-4.185-4.532 0-2.43 1.668-4.361 4.185-4.361 2.537 0 4.205 1.932 4.205 4.361 0 2.601-1.668 4.532-4.205 4.532zm19.784-2.824v-7.721h-2.175v7.648c0 1.206-.651 2.796-2.739 2.796-2.084 0-2.74-1.59-2.74-2.796v-7.648h-2.17v7.721c0 2.943 2.122 4.789 4.91 4.789 2.794 0 4.914-1.846 4.914-4.789zm5.806-4.5c0-1.119.996-1.569 1.997-1.569.844 0 1.672.313 2.136.968l1.589-1.673c-.951-.895-2.227-1.256-3.498-1.256-2.258 0-4.497 1.17-4.497 3.686 0 4.359 5.788 2.825 5.788 5.497 0 1.12-1.136 1.672-2.14 1.672a2.883 2.883 0 0 1-2.411-1.276l-1.636 1.585c1 1.188 2.481 1.656 4.001 1.656 2.394 0 4.458-1.278 4.458-3.896 0-4.343-5.787-2.946-5.787-5.394zm9.402-3.221h2.178v12.198h-2.178zm17.322 12.199v-12.199h-2.172v9.061l-.018.018-.018-.018-5.909-9.061h-2.877V124.8h2.17v-9.356h.037l6.031 9.356zm15.069-.897v-6.234h-4.672v1.961h2.499v2.876c-.759.433-1.757.641-2.862.641-2.514 0-4.185-1.932-4.185-4.532 0-2.43 1.671-4.361 4.185-4.361 1.227 0 2.414.434 3.189 1.191l1.604-1.62c-1.274-1.139-2.949-1.532-4.808-1.532-3.758 0-6.445 2.549-6.445 6.461 0 3.808 2.688 6.358 6.445 6.358 1.879-.001 3.568-.418 5.05-1.209zm-83.511 8.072-5.307 12.2h2.434l1.1-2.789h5.292l1.137 2.789h2.479l-5.252-12.2h-1.883zm-1.031 7.547 1.913-4.961 1.882 4.961h-3.795zm12.659-7.547h-2.171v12.201h7.361v-1.965h-5.19zm9.781 0h-2.171v12.201h7.357v-1.965h-5.186zm7.582 0h2.169v12.2h-2.169zm9.75 0-5.306 12.2h2.431l1.098-2.789h5.296l1.137 2.789h2.481l-5.254-12.2h-1.883zm-1.032 7.547 1.912-4.961 1.879 4.961h-3.791zm19.311 1.521-.017.016-.017-.016-5.911-9.068h-2.88v12.201h2.173v-9.358h.037l6.031 9.358h2.756v-12.201h-2.172zm11.627 1.479c-2.515 0-4.186-1.932-4.186-4.528 0-2.433 1.671-4.363 4.186-4.363.844 0 1.67.26 2.567 1.207l1.691-1.24c-1.207-1.397-2.618-1.932-4.276-1.932-3.754 0-6.445 2.553-6.445 6.461 0 3.807 2.691 6.358 6.445 6.358 1.793 0 3.444-.653 4.551-2.168l-1.796-1.274c-.806 1.03-1.752 1.479-2.737 1.479zm9.072-.311v-3.308h5.599v-1.962h-5.599v-3.002h5.907v-1.964h-8.081v12.201h8.395v-1.965z" class="words"></path></svg>
