<svg xmlns="http://www.w3.org/2000/svg" width="897" height="1243" viewBox="0 0 8970 12430"><g id="l3k7QaYTNrX3DXaVZ38KkWT" fill="rgb(214,40,129)" style="transform: none;"><g><path id="pOGfcHPlj" d="M8651 10593 c-325 -4 -299 4 -358 -102 -20 -36 -71 -124 -113 -196 -42 -71 -89 -152 -104 -180 -40 -71 -170 -296 -226 -390 -26 -44 -60 -102 -75 -130 -16 -27 -39 -67 -52 -87 -12 -21 -23 -40 -23 -43 0 -4 -13 -25 -28 -48 -16 -23 -41 -66 -57 -94 -15 -29 -32 -53 -37 -53 -11 0 -10 -47 1 -55 6 -3 97 -7 203 -9 272 -4 339 -25 451 -138 101 -103 147 -220 147 -384 0 -169 -68 -304 -197 -390 -123 -81 -253 -107 -532 -106 -129 1 -198 5 -207 13 -12 10 -14 197 -14 1182 0 1067 -1 1172 -16 1188 -15 16 -40 18 -294 19 -225 0 -279 -2 -289 -14 -15 -18 -16 -2875 -1 -2890 7 -7 241 -9 691 -7 619 2 686 4 742 21 157 45 240 81 336 146 49 33 158 142 191 189 29 43 103 182 106 199 1 6 14 46 28 89 14 43 26 91 26 107 0 17 5 30 10 30 15 0 13 353 -2 368 -9 9 -9 12 2 12 10 0 10 3 -2 18 -8 9 -20 37 -28 62 -50 167 -110 269 -233 393 -86 86 -167 135 -291 174 -31 10 -56 23 -56 30 0 6 22 47 48 90 27 43 84 137 127 208 43 72 148 245 233 385 85 140 162 267 171 282 9 16 22 28 29 28 19 0 16 76 -4 84 -9 3 -16 5 -17 4 -1 -2 -130 -4 -286 -5z"></path><path id="pVHJEVL2q" d="M0 9135 l0 -1455 684 0 683 0 101 34 c158 53 263 115 357 212 98 100 189 255 220 374 19 75 36 169 41 235 7 81 -8 259 -27 325 -30 107 -48 154 -91 240 -133 267 -400 444 -718 475 -41 5 -201 11 -355 14 l-279 6 -8 35 c-4 19 -7 235 -7 479 0 403 -2 445 -17 462 -16 18 -36 19 -301 19 l-283 0 0 -1455z m1170 -105 c93 -21 171 -63 220 -116 43 -47 57 -71 94 -157 21 -50 21 -216 0 -272 -8 -22 -18 -49 -21 -60 -10 -33 -65 -105 -92 -120 -169 -94 -259 -114 -539 -116 -142 -1 -207 2 -215 10 -17 17 -23 817 -6 837 10 12 53 14 258 11 151 -3 267 -9 301 -17z"></path><path id="pvnnEdAxj" d="M2481 10576 c-17 -21 -16 -2877 2 -2888 16 -10 1618 -10 1635 0 9 7 13 63 13 238 l1 229 -27 23 c-15 13 -34 21 -41 18 -8 -3 -226 -6 -485 -6 -347 -1 -474 2 -485 11 -11 9 -14 64 -14 308 0 163 4 302 9 309 6 11 100 13 477 11 541 -2 525 -2 537 10 5 5 9 115 8 252 -1 211 -3 244 -17 260 -16 18 -44 19 -501 18 -344 0 -489 3 -498 11 -11 9 -14 72 -16 303 -2 345 -2 338 12 352 7 7 177 10 512 10 469 0 503 1 515 18 10 13 13 73 13 254 0 206 -3 238 -17 254 -16 18 -51 19 -819 19 -674 0 -804 -2 -814 -14z"></path><path id="pn7Y8pVY4" d="M4661 10576 c-17 -21 -16 -2877 2 -2888 16 -10 1618 -10 1635 0 9 7 13 65 13 242 1 232 1 235 -22 253 -14 11 -31 16 -44 13 -44 -11 -958 -7 -969 4 -12 12 -22 540 -11 597 l6 33 501 0 c311 -1 505 3 511 9 5 5 9 107 9 252 -1 212 -3 244 -18 260 -16 18 -42 19 -502 19 -337 -1 -489 3 -496 10 -14 14 -20 628 -6 650 8 13 78 15 516 17 295 2 511 6 517 12 5 5 9 116 9 251 0 215 -2 244 -18 261 -17 18 -41 19 -819 19 -671 0 -804 -2 -814 -14z"></path><path id="p71ylsLwd" d="M6395 3474 c-42 -58 -146 -157 -223 -212 -25 -18 -49 -36 -52 -40 -3 -4 -16 -13 -30 -20 -14 -7 -45 -25 -70 -40 -75 -47 -239 -132 -254 -132 -8 0 -21 -6 -28 -13 -7 -7 -107 -53 -223 -102 -115 -48 -247 -105 -292 -127 -45 -21 -94 -43 -108 -48 -14 -5 -25 -14 -25 -20 0 -5 -9 -10 -20 -10 -11 0 -23 -7 -26 -15 -4 -8 -11 -15 -16 -15 -27 0 -117 -114 -138 -175 -16 -47 -18 -258 -3 -277 6 -7 13 -26 17 -42 11 -45 81 -136 134 -174 58 -42 99 -61 177 -80 265 -65 497 30 582 238 17 41 34 94 38 117 12 75 3 74 351 71 l309 -3 3 -39 c3 -37 -10 -103 -45 -226 -9 -30 -19 -62 -23 -70 -78 -161 -82 -168 -130 -230 -45 -59 -116 -128 -168 -164 -23 -16 -42 -33 -42 -37 0 -5 -4 -9 -10 -9 -5 0 -38 -17 -72 -38 -122 -73 -324 -143 -468 -162 -153 -19 -305 -9 -445 30 -90 26 -165 49 -190 60 -11 5 -38 16 -60 25 -61 24 -194 105 -252 152 -45 37 -60 43 -98 43 -42 0 -85 -17 -110 -44 -5 -6 -41 -27 -80 -46 -38 -19 -72 -37 -75 -40 -3 -3 -25 -12 -50 -19 -25 -7 -61 -19 -80 -26 -62 -23 -232 -53 -370 -66 -158 -14 -1358 -19 -1378 -5 -9 7 -12 200 -12 911 0 496 -3 917 -6 934 -4 17 -12 31 -18 31 -9 -1 -103 -150 -115 -184 -2 -6 -7 -13 -11 -16 -4 -3 -17 -23 -29 -45 -12 -22 -30 -53 -41 -70 -11 -16 -24 -39 -30 -50 -6 -11 -22 -38 -35 -60 -14 -22 -35 -60 -48 -85 -12 -25 -25 -47 -28 -50 -3 -3 -19 -27 -35 -55 -16 -27 -33 -57 -39 -66 -5 -9 -20 -34 -33 -55 -12 -22 -31 -52 -42 -69 -11 -16 -23 -37 -27 -45 -4 -8 -23 -42 -43 -75 -20 -33 -48 -80 -62 -105 -61 -109 -71 -126 -89 -152 -11 -14 -19 -29 -19 -32 0 -3 -29 -54 -65 -111 -36 -58 -65 -108 -65 -110 0 -3 -11 -22 -24 -43 -13 -20 -63 -104 -111 -187 -105 -178 -212 -360 -234 -395 -8 -14 -23 -38 -32 -55 -9 -16 -26 -46 -38 -65 -11 -19 -24 -42 -28 -50 -6 -14 -90 -154 -113 -190 -6 -8 -13 -22 -17 -30 -7 -15 -174 -301 -193 -330 -5 -8 -17 -31 -27 -50 -10 -19 -33 -57 -51 -85 -19 -27 -38 -59 -43 -70 -5 -11 -19 -36 -30 -55 -12 -19 -29 -49 -38 -65 -9 -17 -26 -44 -38 -62 -13 -17 -23 -34 -23 -38 0 -4 -13 -26 -28 -49 -16 -23 -27 -47 -24 -54 3 -9 892 -12 4083 -12 2289 0 4079 4 4079 9 0 4 -8 19 -18 32 -10 13 -25 38 -33 54 -8 17 -31 56 -52 87 -20 31 -37 60 -37 64 0 4 -17 34 -39 68 -21 34 -41 71 -45 84 -4 12 -11 22 -16 22 -4 0 -10 8 -14 18 -3 9 -11 26 -18 36 -32 48 -78 126 -78 130 0 3 -17 34 -38 68 -21 35 -42 70 -46 78 -4 8 -12 24 -19 35 -7 11 -32 54 -57 95 -25 41 -49 83 -55 92 -5 9 -20 34 -31 55 -58 103 -67 119 -80 134 -8 8 -14 19 -14 22 0 4 -18 36 -40 72 -22 36 -40 68 -40 70 0 3 -22 42 -50 86 -27 44 -50 82 -50 84 0 3 -25 46 -57 97 -31 51 -61 102 -67 113 -16 29 -148 251 -168 283 -10 15 -21 34 -25 42 -7 13 -64 111 -98 168 -5 9 -26 44 -45 77 -19 33 -40 69 -47 80 -7 11 -15 27 -19 35 -4 8 -17 28 -28 45 -30 42 -42 63 -67 118 -13 26 -26 47 -31 47 -4 0 -8 6 -8 14 0 8 -6 21 -12 28 -7 7 -22 29 -32 48 -11 19 -22 37 -26 40 -3 3 -14 21 -23 40 -10 19 -27 49 -37 65 -11 17 -25 41 -30 55 -6 13 -15 27 -19 30 -4 3 -20 28 -35 55 -16 28 -35 61 -43 75 -8 14 -23 39 -33 55 -11 17 -23 37 -27 45 -4 8 -29 50 -55 93 -26 43 -48 82 -48 87 0 5 -6 15 -12 22 -17 19 -34 45 -58 93 -22 45 -54 85 -67 85 -4 0 -26 -25 -48 -56z"></path></g></g><g id="l5TJacQgQu2MP8oVvkpElBq" fill="rgb(61,60,60)" style="transform: none;"><g><path id="pL69iLFUg" d="M440 12416 c0 -8 -25 -19 -67 -29 -150 -37 -263 -118 -337 -241 -29 -49 -36 -70 -36 -113 l0 -53 140 0 c150 0 149 -1 178 60 39 79 144 123 254 105 123 -20 201 -133 154 -224 -36 -68 -114 -111 -206 -111 -131 -1 -266 -57 -350 -146 -76 -81 -104 -149 -105 -254 0 -80 3 -92 38 -162 39 -80 102 -145 176 -183 154 -78 341 -74 486 10 63 36 177 154 173 179 -2 15 -29 34 -98 68 -118 58 -141 60 -170 14 -11 -20 -39 -44 -64 -55 -155 -76 -340 71 -253 200 36 53 90 77 198 89 173 18 282 65 374 161 79 83 109 153 110 254 0 69 -5 89 -32 148 -57 120 -176 212 -325 253 -36 10 -58 21 -58 30 0 11 -19 14 -90 14 -69 0 -90 -3 -90 -14z"></path><path id="pK23wzdA8" d="M1393 12373 c-18 -7 -19 -1313 -1 -1331 14 -14 814 -17 837 -3 15 10 23 190 9 228 l-7 23 -293 2 -293 3 0 140 0 140 230 3 c126 1 233 6 238 11 11 11 13 219 2 229 -3 4 -111 9 -238 12 l-232 5 -3 134 c-2 101 1 136 10 143 7 4 140 8 296 8 l282 0 8 23 c10 27 8 209 -2 225 -5 9 -116 12 -419 11 -227 0 -418 -3 -424 -6z"></path><path id="pSaDhTHkq" d="M2560 12361 c0 -14 528 -1100 623 -1281 14 -28 45 -33 58 -10 8 13 85 169 513 1044 65 131 115 245 112 252 -8 22 -219 20 -237 -2 -8 -9 -36 -60 -64 -113 l-50 -96 -294 -3 c-253 -2 -296 0 -311 13 -9 9 -34 52 -55 98 -57 122 -49 117 -182 117 -104 0 -113 -1 -113 -19z m815 -481 c7 -11 -146 -322 -160 -324 -6 0 -37 53 -70 119 -33 66 -69 134 -79 152 -36 58 -25 63 148 63 90 0 157 -4 161 -10z"></path><path id="pn3jnKsd9" d="M4435 12370 c-4 -6 -6 -243 -5 -529 0 -285 -2 -525 -6 -534 -5 -15 -28 -17 -198 -17 -136 0 -196 -4 -204 -12 -16 -16 -16 -220 0 -236 9 -9 141 -12 533 -12 392 0 524 3 533 12 8 8 12 49 12 118 0 69 -4 110 -12 118 -8 8 -67 12 -199 12 -146 0 -189 3 -198 14 -8 10 -11 157 -11 535 1 287 -2 526 -5 531 -8 13 -232 13 -240 0z"></path><path id="pyOkr4Fsg" d="M5830 12360 c-7 -13 -10 -190 -10 -535 1 -283 -2 -520 -5 -525 -4 -6 -81 -10 -194 -10 -132 0 -191 -4 -199 -12 -16 -16 -16 -220 0 -236 9 -9 141 -12 533 -12 392 0 524 3 533 12 8 8 12 49 12 118 0 69 -4 110 -12 118 -8 8 -67 12 -199 12 -148 0 -189 3 -198 14 -9 10 -11 153 -11 535 1 286 -1 525 -5 531 -4 6 -52 10 -120 10 -104 0 -115 -2 -125 -20z"></path><path id="pSCY3Eee2" d="M6902 12368 c-9 -9 -12 -170 -12 -665 0 -635 1 -653 19 -663 23 -12 210 -13 229 -1 11 6 13 108 12 531 0 386 2 526 11 536 10 12 62 14 291 14 201 -1 284 2 294 11 18 15 20 219 2 237 -17 17 -829 17 -846 0z"></path><path id="pIusVVqPk" d="M8112 12368 c-17 -17 -17 -1309 0 -1326 9 -9 119 -12 435 -12 l423 0 0 130 0 130 -302 2 -303 3 0 140 0 140 230 3 c202 2 232 4 243 19 17 24 17 207 -1 222 -9 7 -94 12 -243 13 l-229 3 -3 134 c-2 101 1 136 10 143 7 4 145 8 306 8 l292 0 0 130 0 130 -423 0 c-316 0 -426 -3 -435 -12z"></path><path id="p19ZOU8Bpv" d="M8918 10593 c-24 -6 -23 -23 1 -23 11 0 26 -3 35 -6 10 -4 16 -1 16 9 0 12 -25 31 -33 26 -1 -1 -10 -3 -19 -6z"></path><path id="p162WJ1FFU" d="M0 10574 c0 -8 5 -12 10 -9 17 10 554 5 564 -5 19 -19 29 -10 11 10 -17 19 -31 20 -302 20 -250 0 -283 -2 -283 -16z"></path><path id="py27Gst9O" d="M2476 10568 c-9 -12 -15 -32 -15 -43 1 -20 1 -20 6 0 13 53 -32 50 830 45 452 -3 807 -9 818 -14 20 -9 20 -9 1 12 l-19 22 -803 0 -803 0 -15 -22z"></path><path id="pU871g757" d="M4654 10565 c-8 -13 -14 -32 -11 -42 4 -15 5 -14 6 3 0 12 7 27 15 33 10 8 219 11 785 11 514 0 771 3 771 10 0 7 -259 10 -775 10 l-775 0 -16 -25z"></path><path id="p4F9aVJIg" d="M6230 10580 c0 -5 10 -10 23 -10 13 0 33 -9 45 -20 12 -12 22 -17 22 -12 0 5 -10 18 -23 30 -24 22 -67 30 -67 12z"></path><path id="pWXg0Liu2" d="M6832 10578 c-18 -18 -14 -32 5 -17 9 8 24 13 35 11 10 -2 18 2 18 7 0 15 -43 14 -58 -1z"></path><path id="pLIZShNHx" d="M6920 10580 c0 -6 73 -10 200 -10 127 0 200 4 200 10 0 6 -73 10 -200 10 -127 0 -200 -4 -200 -10z"></path><path id="pVIpxFmMo" d="M7360 10580 c0 -5 9 -10 19 -10 11 0 23 -4 26 -10 3 -5 11 -10 17 -10 6 0 3 9 -7 20 -19 21 -55 27 -55 10z"></path><path id="pfVA8FqU7" d="M8339 10564 c-23 -25 -23 -26 -2 -13 13 7 25 19 27 26 8 19 2 16 -25 -13z"></path><path id="pyPAKYUC4" d="M8380 10580 c0 -6 88 -10 245 -10 157 0 245 4 245 10 0 6 -88 10 -245 10 -157 0 -245 -4 -245 -10z"></path><path id="pBbh5E4ME" d="M6311 10093 c0 -12 -9 -27 -18 -32 -10 -6 -13 -11 -7 -11 18 0 36 27 31 47 -4 14 -5 14 -6 -4z"></path><path id="pBhxq40Rm" d="M4080 10050 l-25 -8 28 -1 c15 -1 27 4 27 9 0 6 -1 10 -2 9 -2 -1 -14 -5 -28 -9z"></path><path id="pf5yisLQw" d="M3083 10043 c-7 -2 -13 -17 -12 -31 l1 -27 7 25 c5 17 16 27 36 31 27 6 27 7 5 7 -14 0 -31 -2 -37 -5z"></path><path id="pv9u2Gdcd" d="M5261 10041 c-9 -6 -10 -11 -2 -15 6 -4 11 -3 11 3 0 5 12 12 28 14 26 4 26 4 2 5 -14 1 -31 -2 -39 -7z"></path><path id="pwWG26yfk" d="M601 9617 c-1 -26 4 -40 14 -44 23 -8 31 5 12 20 -8 6 -18 23 -20 37 -3 18 -5 14 -6 -13z"></path><path id="p15ubvgc0u" d="M650 9580 c0 -6 73 -10 200 -10 127 0 200 4 200 10 0 6 -73 10 -200 10 -127 0 -200 -4 -200 -10z"></path><path id="pCFNIb612" d="M1310 9561 c0 -13 8 -17 48 -26 42 -9 42 9 1 24 -39 13 -49 14 -49 2z"></path><path id="pNQkhwlSA" d="M1430 9530 c0 -6 10 -14 23 -19 52 -19 67 -22 67 -11 0 6 -10 14 -22 19 -53 19 -68 22 -68 11z"></path><path id="p11FUAWgTn" d="M8341 9508 c-1 -16 4 -28 9 -28 12 0 12 8 0 35 -8 18 -9 17 -9 -7z"></path><path id="pW9aDfGMx" d="M1540 9490 c0 -8 51 -40 65 -40 16 0 1 22 -25 35 -34 18 -40 18 -40 5z"></path><path id="pfWotMxu7" d="M8402 9479 c2 -7 10 -15 17 -17 8 -3 12 1 9 9 -2 7 -10 15 -17 17 -8 3 -12 -1 -9 -9z"></path><path id="p16hL9kcTV" d="M8450 9460 c0 -6 21 -20 46 -30 53 -23 54 -23 54 -10 0 5 -21 18 -46 30 -54 23 -54 23 -54 10z"></path><path id="p1CdWf20vs" d="M5261 9398 c0 -20 4 -40 10 -43 15 -10 24 2 11 17 -5 7 -12 24 -15 38 -3 19 -5 16 -6 -12z"></path><path id="p14Ora5LK9" d="M1690 9408 c0 -14 39 -43 47 -34 7 7 -6 25 -28 36 -14 8 -19 7 -19 -2z"></path><path id="p6dAwkGph" d="M8580 9396 c0 -9 4 -16 9 -16 5 0 24 -12 41 -26 17 -15 34 -24 37 -20 8 8 -19 37 -56 59 -27 16 -31 16 -31 3z"></path><path id="poTR01XQp" d="M3080 9378 c0 -18 18 -34 28 -24 3 4 -2 14 -11 23 -16 16 -17 16 -17 1z"></path><path id="pBwsZwDzL" d="M3140 9360 c0 -6 37 -10 90 -10 53 0 90 4 90 10 0 6 -37 10 -90 10 -53 0 -90 -4 -90 -10z"></path><path id="p15EoSfO3c" d="M3330 9360 c0 -5 11 -10 25 -10 14 0 25 5 25 10 0 6 -11 10 -25 10 -14 0 -25 -4 -25 -10z"></path><path id="pKAN7Gzly" d="M3390 9360 c0 -6 48 -10 125 -10 77 0 125 4 125 10 0 6 -48 10 -125 10 -77 0 -125 -4 -125 -10z"></path><path id="ptwGZP4aO" d="M3655 9360 c3 -5 22 -10 41 -10 19 0 34 5 34 10 0 6 -18 10 -41 10 -24 0 -38 -4 -34 -10z"></path><path id="pOXSDOM4J" d="M3745 9360 c3 -5 31 -10 61 -10 30 0 54 5 54 10 0 6 -27 10 -61 10 -37 0 -58 -4 -54 -10z"></path><path id="p19jco0N2h" d="M3870 9361 c0 -5 46 -10 102 -10 56 0 106 -5 112 -11 19 -19 29 -10 11 10 -16 18 -31 20 -122 20 -56 0 -103 -4 -103 -9z"></path><path id="p1BRRyEhaF" d="M5305 9360 c3 -5 22 -10 41 -10 19 0 34 5 34 10 0 6 -18 10 -41 10 -24 0 -38 -4 -34 -10z"></path><path id="pjQpSJ3N2" d="M5410 9360 c0 -6 52 -10 135 -10 83 0 135 4 135 10 0 6 -52 10 -135 10 -83 0 -135 -4 -135 -10z"></path><path id="pCwMspgh7" d="M5690 9360 c0 -6 42 -10 105 -10 63 0 105 4 105 10 0 6 -42 10 -105 10 -63 0 -105 -4 -105 -10z"></path><path id="pR0Ka0r2H" d="M5950 9360 c0 -6 47 -10 120 -10 73 0 120 4 120 10 0 6 -47 10 -120 10 -73 0 -120 -4 -120 -10z"></path><path id="p9DPVT1nU" d="M6250 9364 c0 -6 11 -20 25 -32 14 -12 25 -18 25 -14 0 5 -11 19 -25 32 -14 13 -25 19 -25 14z"></path><path id="pOofZSMdj" d="M8210 9097 c0 -2 15 -16 33 -33 l32 -29 -29 33 c-28 30 -36 37 -36 29z"></path><path id="p1DJZ5uLvm" d="M6291 8873 c0 -12 -9 -27 -18 -32 -10 -6 -13 -11 -7 -11 18 0 36 27 31 47 -4 14 -5 14 -6 -4z"></path><path id="p1TPSo5i3" d="M8950 8806 c0 -14 5 -26 10 -26 6 0 10 9 10 19 0 11 -4 23 -10 26 -6 4 -10 -5 -10 -19z"></path><path id="pD9r0dsBF" d="M3070 8795 c0 -14 2 -25 4 -25 2 0 6 11 8 25 3 14 1 25 -3 25 -5 0 -9 -11 -9 -25z"></path><path id="pdBInVwFG" d="M8940 8470 c0 -5 7 -10 15 -10 8 0 15 5 15 10 0 6 -7 10 -15 10 -8 0 -15 -4 -15 -10z"></path><path id="pd58g1sqk" d="M8154 8276 c-10 -8 -16 -18 -11 -22 4 -4 7 -2 7 5 0 7 4 10 9 6 5 -3 13 0 16 6 11 17 0 20 -21 5z"></path><path id="p10axekmn3" d="M1281 8256 c-14 -8 -19 -16 -13 -20 9 -5 42 18 42 30 0 6 -2 5 -29 -10z"></path><path id="pnZ2Lz4C1" d="M600 8217 c0 -20 4 -37 10 -37 5 0 7 14 3 33 -8 45 -13 47 -13 4z"></path><path id="pEAGh1GNc" d="M5259 8240 c-10 -28 2 -60 24 -60 19 0 19 1 5 13 -9 6 -18 23 -20 37 -2 16 -5 20 -9 10z"></path><path id="pnll6ygX1" d="M7423 8220 c2 -33 4 -35 37 -37 19 0 25 1 13 4 -25 5 -39 19 -46 48 -3 11 -5 4 -4 -15z"></path><path id="p1Asw7HFek" d="M1213 8230 c-13 -5 -23 -15 -22 -22 0 -9 2 -10 5 -1 3 7 12 9 20 6 8 -3 14 0 14 7 0 6 5 8 10 5 6 -3 10 -1 10 4 0 13 -7 13 -37 1z"></path><path id="pk2UKyOMt" d="M3072 8215 c3 -27 7 -30 38 -32 29 -2 31 -1 10 6 -14 4 -31 18 -38 31 l-13 25 3 -30z"></path><path id="pMuB8kTSU" d="M8053 8230 c-13 -5 -23 -15 -22 -22 0 -10 2 -10 6 0 2 6 9 10 14 6 5 -3 16 2 25 10 17 18 10 19 -23 6z"></path><path id="p14PXbosIm" d="M4090 8183 c0 -5 11 -20 25 -33 14 -13 25 -19 25 -13 0 5 -11 20 -25 33 -14 13 -25 19 -25 13z"></path><path id="pmkcdG8FW" d="M6898 7673 c23 -2 59 -2 80 0 20 2 1 4 -43 4 -44 0 -61 -2 -37 -4z"></path><path id="p168KtD7dp" d="M4348 6803 c-41 -71 -173 -294 -293 -498 -454 -770 -525 -891 -756 -1285 -131 -223 -252 -427 -270 -455 -37 -58 -35 -18 -31 -457 2 -263 4 -319 17 -331 12 -12 77 -16 372 -21 537 -9 638 -24 858 -132 155 -75 288 -189 413 -353 34 -45 78 -42 194 12 51 24 127 56 168 71 41 15 99 38 128 52 29 13 58 24 65 24 7 0 84 30 172 67 280 119 410 205 470 314 29 53 30 57 30 204 0 148 0 151 -32 218 -55 115 -176 226 -298 272 -71 27 -302 28 -366 1 -148 -60 -219 -116 -280 -223 -44 -75 -89 -215 -89 -275 0 -36 -4 -50 -19 -58 -12 -6 -135 -10 -329 -10 -273 0 -311 2 -316 16 -9 24 -7 98 4 146 5 24 14 66 20 93 21 93 28 120 54 187 59 159 164 311 280 410 136 114 342 217 476 237 25 4 50 10 55 13 6 4 80 14 165 23 190 21 273 15 306 -20 28 -30 50 -32 50 -6 0 11 -3 18 -7 15 -4 -2 -10 3 -13 12 -4 10 -2 13 7 8 14 -9 -9 23 -34 46 -9 8 -182 296 -384 640 -658 1117 -689 1170 -701 1170 -6 0 -45 -57 -86 -127z"></path><path id="p10UCdKZrA" d="M3019 3172 c-18 -13 -19 -38 -19 -576 0 -485 2 -565 15 -576 21 -18 644 -7 740 13 84 17 89 19 190 68 98 47 143 83 187 151 60 92 88 207 88 359 0 185 -40 284 -169 422 -52 56 -212 126 -288 127 -18 0 -54 4 -80 10 -26 5 -182 11 -347 12 -233 2 -303 0 -317 -10z"></path></g></g><g id="l3RhkwbHUWzgjQM4dWrQkK8" fill="rgb(253,253,253)" style="transform: none;"><g><path id="pc1uhmwnx" d="M5160 5095 c-63 -8 -131 -18 -150 -24 -19 -6 -48 -12 -65 -14 -65 -10 -215 -71 -310 -128 -203 -121 -348 -295 -431 -517 -26 -67 -33 -94 -54 -187 -6 -27 -15 -69 -20 -93 -11 -47 -13 -182 -4 -206 5 -14 45 -16 346 -16 215 0 346 4 359 10 15 8 19 22 19 58 0 60 45 200 89 275 61 106 133 163 278 223 61 24 242 24 309 -1 121 -45 243 -157 297 -272 30 -65 32 -74 32 -188 -1 -114 -2 -123 -30 -174 -60 -109 -189 -195 -470 -313 -88 -38 -165 -68 -172 -68 -7 0 -36 -11 -65 -24 -29 -14 -87 -37 -128 -52 -41 -15 -118 -47 -170 -71 -104 -49 -110 -49 -148 8 -138 203 -420 383 -673 430 -126 23 -229 29 -582 35 -295 5 -360 9 -372 21 -13 12 -15 67 -16 331 -2 363 -2 322 6 343 4 11 0 18 -15 22 -16 4 -23 -1 -30 -19 -5 -13 -52 -95 -103 -181 -120 -201 -327 -552 -342 -578 -14 -27 -179 -306 -221 -373 -28 -47 -31 -58 -23 -87 6 -20 9 -398 7 -939 -3 -808 -1 -905 13 -914 16 -10 1324 -8 1409 2 25 3 74 8 110 10 36 2 72 6 80 9 8 3 51 13 95 22 44 10 96 23 115 30 66 23 106 35 124 35 9 0 15 3 13 8 -3 4 27 23 67 42 39 19 76 40 81 46 17 18 64 44 80 44 8 0 39 -19 68 -43 58 -47 191 -128 252 -152 22 -9 49 -20 60 -25 65 -28 248 -78 330 -89 88 -13 267 -13 365 -1 144 19 346 89 468 162 34 21 67 38 72 38 6 0 10 4 10 9 0 4 19 21 42 37 52 36 123 105 168 164 48 62 52 69 130 230 4 8 14 40 23 70 38 134 48 189 45 255 l-3 70 -339 3 c-381 3 -369 5 -381 -71 -4 -23 -21 -76 -38 -117 -55 -134 -170 -223 -323 -250 -73 -13 -98 -11 -199 13 -77 18 -119 37 -177 79 -53 38 -123 129 -134 174 -4 16 -11 34 -16 41 -13 17 -11 178 3 221 20 58 111 172 137 172 5 0 12 7 16 15 3 8 15 15 26 15 11 0 20 5 20 10 0 6 11 15 25 20 14 5 63 27 108 48 120 57 491 212 506 212 6 0 9 4 6 10 -3 5 7 12 22 16 30 7 188 89 263 136 25 15 56 33 70 40 14 7 27 16 30 20 3 4 27 22 52 40 108 78 261 237 261 273 0 9 -121 216 -785 1340 -72 121 -139 229 -149 240 -17 17 -34 20 -137 22 -64 1 -169 -5 -232 -12z m-1435 -1963 c174 -28 264 -80 367 -212 80 -104 111 -240 90 -402 -15 -110 -33 -164 -80 -236 -44 -68 -89 -104 -187 -151 -101 -49 -106 -51 -190 -68 -97 -20 -659 -31 -680 -13 -13 11 -15 87 -15 546 0 508 1 533 19 546 14 10 79 12 317 6 165 -3 326 -11 359 -16z"></path></g></g></svg>
