<svg xmlns="http://www.w3.org/2000/svg" width="2649" height="778" viewBox="0 0 26490 7780"><g id="l5iN3zuZ1dhHYWcVHyfsei0" fill="rgb(0,93,166)" style="transform: none;"><g><path id="pOCXpZpdv" d="M4225 7774 c-464 -70 -925 -255 -1450 -582 -344 -214 -802 -549 -1205 -881 -371 -306 -1070 -903 -1113 -951 -102 -113 -157 -220 -164 -322 -5 -55 -2 -74 17 -112 49 -102 182 -131 306 -68 129 65 951 605 1283 841 194 138 397 261 430 261 11 0 25 -9 31 -19 46 -87 -40 -169 -715 -681 -785 -595 -871 -664 -1109 -899 -454 -446 -577 -655 -490 -829 67 -135 169 -151 364 -56 118 57 66 21 1165 814 574 415 980 706 1025 737 63 42 146 83 169 83 30 0 61 -39 61 -75 0 -49 -54 -103 -334 -333 -1014 -834 -1784 -1505 -1913 -1666 -108 -135 -183 -313 -183 -432 0 -96 52 -193 132 -246 55 -38 133 -39 204 -3 27 13 171 120 319 237 220 172 1543 1207 1927 1508 109 85 227 156 275 166 26 5 34 2 48 -20 16 -24 16 -28 0 -52 -51 -79 -310 -342 -535 -545 -344 -310 -888 -828 -1166 -1110 -201 -205 -287 -313 -348 -439 -35 -73 -42 -96 -45 -163 -6 -142 56 -237 156 -237 89 0 280 75 443 174 322 196 775 544 1606 1236 514 428 633 521 790 615 219 132 391 173 493 120 127 -65 193 -209 286 -620 26 -115 58 -248 71 -295 92 -320 240 -595 414 -770 141 -141 246 -191 421 -198 125 -5 201 12 252 58 31 27 32 31 31 102 -1 81 4 69 -207 591 -172 425 -207 554 -207 762 l0 112 -239 192 c-254 203 -391 336 -483 467 -165 235 -273 520 -314 828 -30 224 -8 537 56 784 29 114 204 656 262 812 53 143 153 360 188 410 24 34 25 32 -63 180 -135 227 -283 375 -450 450 -104 46 -181 62 -327 65 -74 2 -148 1 -165 -1z"></path><path id="pvjpfKqbO" d="M13060 6836 c-220 -47 -381 -158 -458 -315 -35 -71 -37 -82 -37 -171 0 -86 3 -101 32 -163 40 -84 130 -180 233 -249 41 -27 77 -52 79 -53 1 -2 -25 -36 -59 -76 -93 -108 -115 -162 -115 -279 0 -79 4 -103 24 -142 85 -174 343 -279 572 -234 166 33 302 125 357 243 23 49 27 72 27 143 0 75 -3 91 -30 138 -36 65 -120 146 -215 204 -38 23 -70 46 -70 49 0 3 75 90 166 193 l167 188 101 -101 102 -102 109 117 109 116 -107 102 -107 101 120 135 120 135 -212 3 -212 2 -46 -45 -46 -45 -75 34 c-157 72 -384 103 -529 72z m348 -306 c29 -12 52 -26 52 -29 0 -12 -350 -401 -361 -401 -16 0 -105 93 -124 130 -61 118 -4 248 133 307 83 35 209 32 300 -7z m-101 -883 c51 -47 73 -84 73 -124 0 -38 -33 -89 -69 -108 -43 -22 -126 -20 -166 5 -33 21 -65 73 -65 107 0 27 31 80 81 139 43 51 44 51 73 37 15 -8 48 -33 73 -56z"></path><path id="pGytKvpOe" d="M16165 6831 c-191 -54 -339 -197 -401 -387 -25 -77 -29 -104 -29 -204 0 -94 4 -128 23 -185 109 -325 435 -496 747 -389 278 94 444 404 380 709 -24 116 -76 208 -169 301 -86 86 -163 132 -266 159 -73 20 -210 18 -285 -4z m218 -325 c50 -20 94 -78 117 -152 61 -198 -34 -389 -192 -387 -72 1 -118 36 -160 120 -29 59 -33 77 -33 148 0 95 21 164 67 219 51 63 129 83 201 52z"></path><path id="pOIzgYnwG" d="M17418 6835 c-140 -35 -276 -138 -357 -269 -36 -58 -70 -162 -80 -246 -37 -290 134 -569 404 -658 201 -67 425 -12 579 141 131 131 181 265 174 467 -4 99 -9 126 -36 195 -62 157 -197 294 -346 351 -88 33 -247 42 -338 19z m224 -338 c75 -45 118 -139 118 -255 0 -97 -22 -164 -73 -216 -106 -111 -261 -62 -311 97 -27 87 -20 204 18 280 52 107 160 148 248 94z"></path><path id="p1A7FXgnYn" d="M18588 6831 c-219 -72 -368 -311 -368 -591 0 -364 272 -651 571 -601 87 14 165 49 218 96 l41 37 0 -321 0 -321 195 0 195 0 0 845 0 845 -195 0 -195 0 0 -50 0 -50 -50 39 c-75 59 -147 83 -260 88 -73 2 -108 -1 -152 -16z m320 -337 c145 -60 192 -302 86 -441 -59 -77 -181 -100 -265 -51 -82 48 -114 115 -114 238 0 71 4 94 26 141 26 55 69 98 119 118 38 15 106 13 148 -5z"></path><path id="pPEpz6rCz" d="M21669 6831 c-178 -57 -283 -227 -250 -405 23 -126 90 -206 225 -271 110 -52 231 -81 406 -97 l130 -12 0 -39 c0 -56 -39 -92 -109 -102 -102 -14 -274 18 -383 70 -28 14 -53 25 -55 25 -2 0 -22 -39 -44 -87 -23 -49 -50 -105 -60 -126 l-20 -38 63 -29 c144 -68 382 -102 568 -81 182 19 291 70 357 165 66 96 67 105 71 584 l3 432 -195 0 -196 0 0 -40 c0 -22 -2 -40 -5 -40 -2 0 -32 18 -65 39 -39 25 -86 45 -130 55 -93 21 -239 20 -311 -3z m357 -282 c33 -6 80 -24 107 -41 l47 -30 0 -100 0 -100 -72 7 c-95 10 -174 30 -209 56 -67 47 -85 100 -54 159 9 17 17 30 18 30 1 0 20 7 42 15 49 17 48 17 121 4z"></path><path id="p1GuOPKl4G" d="M14700 5995 l0 -825 490 0 490 0 0 155 0 155 -290 0 -290 0 0 195 0 195 270 0 270 0 0 155 0 156 -270 -3 -270 -3 0 323 0 322 -200 0 -200 0 0 -825z"></path><path id="pmsTQDk8H" d="M19990 5995 l0 -827 408 5 c383 4 412 5 487 26 167 47 285 132 340 245 40 83 47 205 15 289 -28 73 -109 163 -185 204 l-57 30 47 12 c208 52 341 244 307 441 -17 98 -46 155 -117 226 -68 68 -145 110 -270 145 -76 21 -102 22 -527 26 l-448 4 0 -826z m761 516 c130 -17 181 -62 187 -166 3 -50 0 -66 -20 -94 -48 -71 -130 -90 -375 -91 l-153 0 0 173 c0 96 3 177 7 180 9 10 275 8 354 -2z m-11 -675 c64 -24 106 -69 120 -128 22 -90 -7 -160 -83 -200 -38 -20 -60 -23 -214 -26 l-173 -4 0 192 0 193 153 -6 c105 -3 166 -10 197 -21z"></path><path id="p18GYuVYyH" d="M22710 6245 l0 -575 195 0 195 0 0 56 0 56 43 -42 c135 -136 393 -143 537 -13 61 55 96 117 121 212 17 67 19 113 19 478 l0 403 -195 0 -194 0 -3 -362 c-3 -335 -4 -366 -22 -402 -14 -28 -32 -44 -64 -58 -64 -28 -122 -18 -173 30 -63 60 -69 101 -69 474 l0 318 -195 0 -195 0 0 -575z"></path><path id="p7wQSmziu" d="M23970 5975 l0 -845 195 0 195 0 2 487 3 487 188 -217 188 -217 216 0 c211 0 215 0 202 19 -8 11 -105 121 -216 244 l-202 225 205 326 c112 179 204 328 204 331 0 3 -103 5 -229 5 l-229 0 -88 -142 c-48 -79 -99 -161 -112 -183 l-25 -39 -54 59 -53 60 0 123 0 122 -195 0 -195 0 0 -845z"></path><path id="p12TnkhnSE" d="M12480 4804 c-14 -2 -56 -9 -95 -15 -119 -19 -237 -68 -388 -162 l-38 -23 82 -100 c45 -54 92 -112 105 -127 l24 -28 65 39 c35 22 104 52 152 68 76 25 103 29 203 29 144 0 188 -18 215 -89 24 -63 14 -107 -35 -156 -49 -49 -100 -75 -265 -134 -272 -98 -400 -188 -461 -320 -50 -111 -56 -257 -13 -371 79 -212 408 -347 744 -306 115 14 224 42 306 80 118 54 117 40 15 190 -49 72 -90 131 -91 131 -1 0 -31 -13 -67 -29 -134 -61 -325 -77 -423 -37 -119 50 -144 159 -55 240 51 46 88 64 255 124 182 65 241 91 312 140 123 83 182 187 191 331 10 183 -57 323 -198 415 -81 53 -104 62 -204 87 -77 18 -282 33 -336 23z"></path><path id="pQm2fj43k" d="M13761 4800 c-301 -64 -471 -287 -471 -620 0 -302 153 -531 395 -595 79 -20 236 -20 306 1 243 72 397 287 416 582 l6 92 -377 0 -376 0 0 24 c0 69 53 155 120 194 40 24 55 27 140 26 118 0 202 -23 282 -77 32 -22 61 -38 63 -36 16 17 155 213 155 220 0 14 -100 89 -159 119 -107 53 -185 72 -326 75 -71 3 -150 0 -174 -5z m280 -790 c-14 -104 -140 -200 -238 -182 -64 11 -121 84 -138 175 l-7 37 193 -2 194 -3 -4 -25z"></path><path id="pBjYhcTi0" d="M16727 4795 c-211 -54 -381 -229 -432 -449 -21 -90 -19 -237 5 -332 52 -203 237 -389 430 -433 69 -16 219 -13 281 5 287 84 466 368 428 677 -30 241 -186 440 -405 518 -77 28 -226 34 -307 14z m236 -358 c56 -43 90 -124 95 -227 6 -117 -14 -185 -71 -244 -52 -55 -105 -73 -164 -57 -95 26 -154 120 -161 257 -7 130 35 232 115 282 53 32 136 27 186 -11z"></path><path id="py9OYi81I" d="M19586 4799 c-289 -37 -521 -174 -658 -389 -133 -207 -157 -561 -55 -792 105 -237 321 -410 602 -484 131 -35 361 -40 495 -11 141 31 292 105 402 199 l27 23 -112 119 -112 119 -51 -36 c-245 -176 -577 -167 -757 22 -101 105 -141 217 -141 386 1 173 40 289 132 387 88 94 191 136 352 145 173 9 296 -29 430 -132 32 -25 63 -45 68 -45 12 0 222 218 222 230 0 12 -70 72 -137 118 -179 122 -444 174 -707 141z"></path><path id="pOpb29djW" d="M20925 4793 c-199 -42 -344 -171 -412 -368 -26 -75 -28 -91 -28 -245 0 -154 2 -170 28 -243 64 -182 185 -301 356 -351 70 -21 228 -21 306 -1 241 63 400 286 422 590 l6 85 -381 0 -381 0 6 33 c10 57 53 136 90 166 20 16 58 35 86 42 105 25 288 -12 372 -76 25 -19 49 -35 53 -35 4 0 42 50 86 110 68 97 77 112 65 127 -24 29 -158 111 -217 133 -131 50 -317 63 -457 33z m305 -773 c0 -55 -59 -139 -119 -169 -105 -54 -199 -17 -241 95 -37 100 -48 94 170 94 184 0 190 -1 190 -20z"></path><path id="pG2NQeru9" d="M24111 4795 c-217 -49 -367 -196 -427 -415 -25 -90 -25 -310 0 -400 56 -205 202 -357 386 -399 65 -15 226 -13 289 4 164 43 298 165 366 334 25 61 50 177 60 279 l6 62 -381 0 c-434 0 -398 -9 -360 94 43 114 139 165 286 152 100 -9 159 -29 233 -76 34 -22 63 -40 65 -40 5 0 156 208 159 220 3 13 -97 87 -168 123 -101 51 -177 68 -320 73 -91 3 -149 -1 -194 -11z m303 -763 c11 -18 -15 -80 -50 -120 -89 -104 -227 -113 -285 -19 -23 38 -51 126 -43 138 7 11 371 12 378 1z"></path><path id="pAQYZTCOm" d="M14520 4190 l0 -590 195 0 195 0 0 56 0 57 50 -47 c82 -77 124 -91 265 -91 111 0 124 2 176 28 69 33 142 109 175 181 48 105 54 175 54 602 l0 394 -194 0 -195 0 -3 -367 c-3 -349 -4 -370 -24 -407 -27 -52 -62 -77 -115 -83 -66 -7 -126 28 -159 92 l-25 49 -3 358 -3 358 -194 0 -195 0 0 -590z"></path><path id="p6HVbtTJ7" d="M15780 4240 l0 -540 195 0 195 0 0 540 0 540 -195 0 -195 0 0 -540z"></path><path id="p19ma3KVZb" d="M17530 4190 l0 -590 195 0 195 0 0 72 0 71 55 -61 c35 -38 76 -71 110 -88 50 -24 63 -26 143 -22 64 3 99 10 132 27 46 24 100 68 100 83 0 12 -181 348 -187 348 -3 0 -17 -9 -32 -19 -42 -30 -126 -54 -165 -47 -53 10 -99 47 -126 101 -25 50 -25 51 -28 383 l-3 332 -195 0 -194 0 0 -590z"></path><path id="p1ASjoS8fN" d="M21709 4776 c-2 -2 -3 -268 -1 -590 l2 -586 195 0 195 0 0 55 0 55 41 -41 c23 -23 66 -53 98 -68 51 -24 67 -26 176 -26 112 0 124 2 175 28 118 61 187 164 215 321 12 70 15 171 15 472 l0 384 -194 0 -194 0 -4 -362 c-3 -347 -4 -365 -25 -410 -36 -78 -105 -105 -188 -73 -52 19 -88 61 -104 120 -7 25 -11 166 -11 383 l0 342 -193 0 c-107 0 -196 -2 -198 -4z"></path><path id="pFjSA4uXS" d="M23270 4766 c-60 -16 -109 -47 -154 -96 -87 -96 -106 -179 -106 -467 l0 -213 -65 0 -65 0 0 -145 0 -145 65 0 65 0 0 -225 0 -225 195 0 195 0 2 223 3 222 93 3 93 3 -3 142 -3 142 -90 5 -90 5 0 185 c0 165 2 188 19 217 25 41 54 53 131 53 l65 0 0 165 0 165 -152 -1 c-87 0 -173 -6 -198 -13z"></path><path id="p1HL7rBfNG" d="M24890 4190 l0 -590 195 0 195 0 0 73 0 72 28 -35 c45 -58 84 -91 140 -117 48 -22 64 -25 140 -21 72 3 96 9 139 32 29 16 62 39 73 52 l22 22 -86 164 c-47 90 -90 169 -94 176 -7 11 -21 7 -68 -19 -80 -46 -153 -47 -209 -5 -20 16 -47 50 -59 75 -20 44 -21 64 -24 379 l-3 332 -195 0 -194 0 0 -590z"></path><path id="pVcyiesAK" d="M15782 3343 l3 -178 193 -3 192 -2 0 180 0 180 -195 0 -195 0 2 -177z"></path><path id="p14N3ydqE1" d="M11412 2064 l3 -1229 355 -3 c481 -4 602 10 757 84 132 63 229 178 265 313 22 86 24 310 3 399 -47 200 -198 342 -430 403 -67 18 -119 22 -312 26 l-233 6 0 444 c0 422 -1 447 -21 505 -51 152 -183 262 -330 275 l-59 6 2 -1229z m845 -366 c30 -7 60 -25 88 -52 54 -52 70 -117 60 -246 -9 -112 -31 -154 -100 -189 -48 -25 -57 -26 -267 -29 l-218 -4 0 266 0 266 196 0 c114 0 214 -5 241 -12z"></path><path id="p12Oko1LmE" d="M25992 3270 c-107 -38 -195 -125 -244 -240 l-23 -55 -3 -897 -3 -898 -185 0 -184 0 2 -172 3 -173 568 -3 567 -2 0 175 0 175 -180 0 -180 0 0 1055 0 1055 -42 -1 c-24 0 -67 -9 -96 -19z"></path><path id="pe6ndsGcX" d="M13268 2692 l-198 -2 0 -930 0 -930 205 0 205 0 0 929 c0 512 -3 931 -7 933 -5 2 -97 2 -205 0z"></path><path id="pK1DlR55c" d="M14018 2692 l-198 -2 0 -930 0 -930 205 0 205 0 2 336 3 336 299 -336 299 -336 248 0 c137 0 249 2 249 5 0 3 -161 182 -357 397 -197 215 -357 395 -355 400 1 5 80 117 175 251 375 524 569 799 565 802 -7 7 -39 7 -260 6 l-226 -1 -267 -375 c-147 -206 -270 -375 -273 -375 -4 0 -28 25 -54 54 l-48 55 0 320 c0 176 -3 321 -7 323 -5 2 -97 2 -205 0z"></path><path id="ptR29UfxO" d="M21890 2680 c-8 -8 -125 -203 -260 -432 l-245 -417 -3 430 -2 429 -205 0 -205 0 0 -931 0 -931 393 5 c443 5 476 9 615 78 138 68 236 182 278 324 22 73 24 218 5 295 -41 167 -180 317 -337 367 -30 9 -54 20 -54 25 0 4 106 174 235 376 129 203 237 375 240 383 8 22 -433 21 -455 -1z m-150 -1074 c87 -45 124 -109 124 -211 0 -101 -33 -156 -119 -196 -34 -16 -65 -19 -202 -19 l-163 0 0 226 0 226 163 -4 c131 -3 169 -8 197 -22z"></path><path id="p3Vwb1ilo" d="M23531 2690 c-4 -3 -124 -169 -267 -369 -142 -201 -262 -369 -267 -375 -5 -7 -26 9 -57 42 l-50 53 0 325 0 324 -205 0 -205 0 0 -930 0 -930 200 0 c110 0 201 1 202 3 1 1 5 151 8 333 l5 331 295 -331 296 -331 247 -3 c139 -1 247 2 247 7 0 4 -151 174 -336 377 -185 203 -345 379 -356 390 l-19 22 376 528 376 529 -58 2 c-134 6 -426 8 -432 3z"></path><path id="pFJ5kl2iN" d="M15452 1763 l3 -928 540 0 540 0 3 172 2 173 -340 0 -340 0 0 215 0 215 315 0 315 0 0 175 0 175 -315 0 -315 0 0 195 0 195 360 0 360 0 0 170 0 170 -565 0 -565 0 2 -927z"></path><path id="p1DceMrWzs" d="M17142 1763 l3 -928 199 0 200 0 31 55 c52 90 461 831 484 877 l21 43 94 -183 c52 -100 166 -319 254 -487 l160 -305 206 -3 206 -2 0 920 c0 506 0 923 0 928 0 4 -90 8 -200 10 l-200 2 0 -587 0 -588 -73 135 c-41 74 -126 230 -189 345 -63 116 -130 238 -149 273 l-33 63 -79 -3 -79 -3 -195 -350 c-107 -192 -208 -375 -224 -405 l-29 -55 0 588 0 587 -205 0 -205 0 2 -927z"></path><path id="p1031yDQyH" d="M19125 2673 c3 -10 85 -236 180 -503 382 -1069 467 -1305 476 -1322 9 -16 27 -18 199 -18 170 0 190 2 199 17 5 10 155 421 334 913 179 492 328 903 332 913 7 16 -8 17 -219 17 l-225 0 -30 -97 c-16 -54 -48 -156 -69 -228 l-40 -130 -284 -3 -284 -2 -71 227 -70 228 -218 3 c-204 2 -217 1 -210 -15z m946 -1078 c-47 -157 -89 -285 -92 -285 -4 0 -14 28 -22 63 -9 34 -47 162 -85 285 l-69 222 177 0 177 0 -86 -285z"></path><path id="p1EiamQ3Ou" d="M24112 1763 l3 -928 540 0 540 0 3 172 2 173 -340 0 -340 0 0 215 0 215 315 0 315 0 0 175 0 175 -315 0 -315 0 0 195 0 195 360 0 360 0 0 170 0 170 -565 0 -565 0 2 -927z"></path></g></g><g id="l3rCAjaWzkrA8hxrpNiIKRK" fill="rgb(4,164,190)" style="transform: none;"><g><path id="puPHOYs8U" d="M6630 7739 c-351 -61 -665 -231 -926 -501 -153 -158 -217 -254 -361 -542 -297 -593 -407 -1007 -373 -1411 21 -247 69 -424 175 -640 201 -411 455 -649 1150 -1077 309 -191 664 -403 1315 -785 206 -121 580 -341 830 -488 591 -348 875 -495 1108 -571 122 -39 214 -28 262 34 63 80 -26 181 -395 450 -99 72 -352 258 -562 414 -209 156 -670 497 -1023 758 -353 261 -742 549 -864 640 -123 91 -296 219 -386 285 -196 144 -249 189 -266 232 -30 71 -7 187 47 239 25 24 39 29 79 29 60 0 -138 134 1908 -1297 887 -621 1634 -1139 1660 -1151 184 -82 291 86 171 270 -15 22 -661 545 -1689 1367 -916 733 -1686 1355 -1711 1384 -50 56 -62 88 -48 135 13 46 38 67 77 67 66 0 91 -17 692 -451 80 -58 332 -240 560 -405 228 -166 663 -480 965 -699 655 -474 1245 -900 1350 -972 105 -74 147 -72 205 9 24 32 30 52 30 90 0 89 -3 93 -425 459 -154 133 -309 268 -345 300 -36 31 -263 229 -505 440 -242 210 -575 500 -740 645 -165 144 -466 407 -670 584 -203 178 -450 392 -547 477 -184 161 -208 191 -208 260 0 51 26 126 52 149 35 32 97 24 160 -21 77 -56 1159 -901 1523 -1190 168 -133 1670 -1311 1745 -1368 41 -31 105 -73 141 -92 96 -50 143 -46 175 17 24 47 13 105 -37 195 -54 97 -194 237 -2239 2253 -399 393 -849 837 -1000 987 -303 300 -379 365 -486 418 -123 61 -190 76 -364 80 -85 2 -180 0 -210 -6z"></path><path id="pF2QrGEbC" d="M3331 2464 c-88 -75 -161 -138 -161 -141 0 -11 192 -234 296 -342 372 -390 874 -696 1385 -846 968 -283 1993 -78 2804 559 132 104 385 340 375 349 -16 14 -383 227 -391 227 -6 0 -47 -33 -92 -73 -599 -532 -1416 -787 -2181 -681 -676 93 -1270 416 -1739 944 -67 74 -124 136 -128 138 -4 2 -79 -59 -168 -134z"></path><path id="psR8VyMt4" d="M2695 1944 c-99 -79 -193 -155 -210 -168 l-30 -24 24 -33 c116 -160 399 -470 578 -631 770 -698 1637 -1059 2603 -1084 1146 -30 2241 467 3097 1406 88 97 110 127 101 136 -10 8 -424 256 -471 282 -5 2 -50 -36 -100 -85 -201 -194 -379 -341 -577 -475 -1007 -683 -2202 -813 -3285 -356 -547 231 -1021 586 -1474 1106 -35 39 -66 72 -70 71 -3 0 -87 -65 -186 -145z"></path></g></g></svg>

