<svg xmlns="http://www.w3.org/2000/svg" width="2580" height="1410" viewBox="0 0 25800 14100"><g id="l3XE7imOUCXPpXJlmUEmSBk" fill="rgb(121,112,103)" style="transform: none;"><g style="transform: none;"><path id="pn8oMbcd5" d="M6565 12651 c-94 -25 -167 -105 -149 -165 11 -37 54 -86 94 -106 l38 -19 -39 -40 c-61 -61 -51 -100 35 -136 l39 -16 -38 -31 c-58 -48 -81 -126 -56 -191 15 -39 70 -96 114 -119 53 -27 144 -22 207 11 37 19 52 22 102 16 l58 -7 0 31 c0 30 -1 31 -46 31 -40 0 -45 2 -39 18 16 41 17 84 1 125 -32 84 -116 137 -217 137 -89 0 -125 33 -80 74 14 13 45 18 137 22 174 8 234 36 249 118 15 76 -73 185 -181 226 -61 22 -182 34 -229 21z m221 -56 c61 -18 112 -68 121 -118 4 -29 1 -40 -19 -60 -26 -26 -32 -27 -245 -41 -72 -5 -72 -5 -103 30 -22 26 -30 45 -30 73 0 102 134 158 276 116z m-37 -459 c40 -32 55 -172 27 -241 -36 -84 -150 -70 -176 23 -13 49 -13 141 1 182 19 53 102 74 148 36z"></path><path id="psilM86xv" d="M12713 12646 c-83 -26 -133 -81 -133 -145 0 -35 55 -103 104 -128 l30 -15 -28 -21 c-36 -26 -60 -81 -47 -106 6 -10 34 -28 62 -41 l52 -22 -31 -20 c-60 -38 -89 -111 -71 -182 33 -131 187 -195 316 -131 40 20 63 25 109 23 57 -3 59 -2 59 22 0 22 -5 26 -47 30 -39 4 -46 8 -38 20 5 8 10 38 10 65 0 117 -95 195 -237 195 -63 0 -101 27 -84 59 15 28 35 32 166 38 176 7 235 42 235 138 0 150 -246 277 -427 221z m251 -57 c70 -26 106 -67 106 -120 0 -59 -23 -76 -112 -83 -235 -18 -247 -16 -274 50 -52 125 114 216 280 153z m-78 -439 c37 -15 51 -36 64 -98 25 -116 -17 -212 -92 -212 -71 0 -102 54 -102 178 1 94 26 131 96 141 4 1 19 -4 34 -9z"></path><path id="pAUMFRDzI" d="M6222 12316 l5 -45 -50 35 c-60 41 -84 48 -144 41 -53 -6 -90 -30 -118 -78 -17 -29 -21 -58 -25 -207 -5 -187 -7 -192 -62 -192 -18 0 -28 -5 -28 -15 0 -10 10 -15 33 -15 17 0 60 -6 94 -13 53 -11 63 -11 68 1 3 7 5 100 5 206 0 217 3 228 72 247 33 8 49 8 83 -6 76 -29 78 -32 74 -215 -4 -146 -6 -163 -23 -176 -11 -8 -32 -14 -48 -14 -16 0 -28 -5 -28 -13 0 -8 28 -16 83 -24 45 -6 89 -13 97 -15 13 -3 16 29 20 221 5 236 4 230 53 245 32 10 17 24 -33 31 -27 4 -66 15 -87 26 -20 10 -39 19 -41 19 -3 0 -2 -20 0 -44z"></path><path id="p77rZp9Qp" d="M3704 12331 c-36 -22 -58 -75 -48 -115 13 -54 125 -129 235 -157 l47 -12 6 -52 c10 -91 -18 -144 -77 -145 -51 0 -87 27 -87 66 0 51 -67 93 -98 62 -34 -34 4 -85 100 -132 119 -60 217 -44 251 43 13 31 15 68 10 204 -6 179 -3 197 43 197 12 0 26 -4 29 -10 9 -15 25 -12 25 4 0 26 -59 59 -106 60 -35 1 -49 -4 -70 -26 -27 -26 -28 -27 -53 -9 -63 44 -155 54 -207 22z m205 -59 c24 -18 26 -26 29 -106 2 -53 -1 -86 -7 -86 -28 0 -121 43 -142 66 -31 33 -33 102 -4 134 16 18 27 21 59 17 22 -3 51 -14 65 -25z"></path><path id="pmgspX4Ev" d="M5042 12335 c-161 -70 -212 -282 -103 -432 84 -116 271 -125 359 -17 32 39 56 99 46 116 -3 4 -81 8 -173 8 l-168 0 -6 39 c-6 49 8 125 30 164 25 42 77 67 141 67 54 0 116 -24 141 -54 8 -9 17 -16 22 -16 37 0 -42 87 -106 116 -57 27 -133 31 -183 9z m182 -361 c18 -7 21 -55 6 -85 -13 -24 -61 -49 -95 -49 -56 0 -99 38 -123 108 l-11 32 104 0 c57 0 110 -3 119 -6z"></path><path id="p1CQJnSMpL" d="M7175 12326 c-96 -45 -148 -132 -147 -246 0 -115 63 -216 158 -256 41 -17 133 -18 171 -2 72 32 133 107 133 166 0 22 -2 22 -176 22 l-177 0 5 79 c7 129 61 191 165 191 62 0 106 -16 145 -53 35 -33 46 -17 17 23 -70 93 -191 125 -294 76z m199 -359 c14 -10 17 -21 12 -44 -10 -44 -47 -74 -98 -80 -37 -4 -49 -1 -77 23 -31 25 -61 77 -61 104 0 16 202 13 224 -3z"></path><path id="p1Bm6r74Ow" d="M8430 12341 c-108 -35 -177 -121 -187 -231 -11 -112 47 -223 141 -273 59 -31 203 -32 261 0 189 101 190 388 1 485 -45 23 -171 34 -216 19z m166 -46 c14 -9 37 -41 51 -72 23 -50 25 -64 21 -156 -6 -155 -46 -215 -146 -224 -102 -9 -163 78 -163 231 -1 127 31 203 95 232 38 18 107 12 142 -11z"></path><path id="pbRywZoSk" d="M10385 12326 c-96 -45 -148 -132 -147 -246 0 -115 63 -216 158 -256 41 -17 133 -18 171 -2 72 32 133 107 133 166 0 22 -2 22 -176 22 l-177 0 5 79 c7 129 61 191 165 191 62 0 106 -16 145 -53 35 -33 46 -17 17 23 -70 93 -191 125 -294 76z m199 -359 c14 -10 17 -21 12 -44 -10 -44 -47 -74 -98 -80 -37 -4 -49 -1 -77 23 -31 25 -61 77 -61 104 0 16 202 13 224 -3z"></path><path id="poleA2p2v" d="M10834 12316 c-85 -85 -12 -185 184 -251 l67 -22 3 -72 c3 -64 1 -73 -22 -96 -50 -50 -146 -17 -146 50 0 27 -31 65 -54 65 -61 0 -63 -54 -4 -104 81 -70 201 -95 265 -56 60 36 66 64 61 250 -3 91 -1 176 3 188 9 24 38 29 71 11 30 -16 34 -2 8 26 -34 36 -91 51 -130 35 -17 -7 -37 -22 -45 -33 -13 -19 -16 -20 -33 -4 -30 28 -89 47 -143 47 -45 0 -55 -4 -85 -34z m202 -32 c38 -18 40 -25 48 -131 4 -46 2 -73 -4 -73 -26 0 -116 42 -142 67 -22 21 -28 36 -28 70 0 75 51 102 126 67z"></path><path id="pMbdTJAnu" d="M14365 12331 c-72 -37 -79 -59 -76 -263 l2 -178 -30 0 c-16 0 -32 -4 -36 -9 -6 -11 152 -171 168 -171 6 0 7 23 3 60 l-7 59 93 3 93 3 3 28 3 27 -95 0 -96 0 0 165 c0 182 9 219 56 231 25 7 75 1 107 -11 34 -14 17 21 -22 43 -58 33 -118 37 -166 13z"></path><path id="pE5ixF5CF" d="M15154 12331 c-36 -22 -58 -75 -48 -115 13 -54 125 -129 235 -157 l47 -12 6 -52 c10 -91 -18 -144 -77 -145 -51 0 -87 27 -87 66 0 51 -67 93 -98 62 -34 -34 4 -85 100 -132 119 -60 217 -44 251 43 13 31 15 68 10 204 -6 179 -3 197 43 197 12 0 26 -4 29 -10 9 -15 25 -12 25 4 0 26 -59 59 -106 60 -35 1 -49 -4 -70 -26 -27 -26 -28 -27 -53 -9 -63 44 -155 54 -207 22z m205 -59 c24 -18 26 -26 29 -106 2 -53 -1 -86 -7 -86 -28 0 -121 43 -142 66 -31 33 -33 102 -4 134 16 18 27 21 59 17 22 -3 51 -14 65 -25z"></path><path id="p141Cfns5Y" d="M16358 12338 c-35 -8 -48 -15 -48 -28 0 -9 -3 -38 -6 -64 -8 -55 4 -59 31 -10 23 42 89 84 134 84 42 0 91 -47 91 -87 0 -44 -25 -70 -108 -112 -116 -59 -160 -111 -149 -178 17 -100 113 -147 261 -127 l46 7 0 63 c0 71 -12 83 -30 29 -14 -44 -54 -75 -94 -75 -73 0 -112 54 -84 114 12 24 39 44 108 81 114 62 140 90 140 153 0 92 -85 163 -192 161 -29 -1 -74 -6 -100 -11z"></path><path id="pnxPCEXW0" d="M17330 12341 c-108 -35 -177 -121 -187 -231 -11 -112 47 -223 141 -273 59 -31 203 -32 261 0 189 101 190 388 1 485 -45 23 -171 34 -216 19z m166 -46 c14 -9 37 -41 51 -72 23 -50 25 -64 21 -156 -6 -155 -46 -215 -146 -224 -102 -9 -163 78 -163 231 -1 127 31 203 95 232 38 18 107 12 142 -11z"></path><path id="p17AvTV9lV" d="M19264 12331 c-36 -22 -58 -75 -48 -115 13 -54 125 -129 235 -157 l47 -12 6 -52 c10 -91 -18 -144 -77 -145 -51 0 -87 27 -87 66 0 51 -67 93 -98 62 -34 -34 4 -85 100 -132 119 -60 217 -44 251 43 13 31 15 68 10 204 -6 179 -3 197 43 197 12 0 26 -4 29 -10 9 -15 25 -12 25 4 0 26 -59 59 -106 60 -35 1 -49 -4 -70 -26 -27 -26 -28 -27 -53 -9 -63 44 -155 54 -207 22z m171 -87 c21 -14 25 -24 25 -65 l0 -50 -27 15 c-16 8 -39 26 -52 40 -21 22 -23 29 -13 51 13 29 33 32 67 9z"></path><path id="p1T6Sb4s5" d="M19885 12331 c-72 -37 -79 -59 -76 -263 l2 -178 -30 0 c-16 0 -32 -4 -36 -9 -6 -11 152 -171 168 -171 6 0 7 23 3 60 l-7 59 93 3 93 3 3 28 3 27 -95 0 -96 0 0 165 c0 182 9 219 56 231 25 7 75 1 107 -11 34 -14 17 21 -22 43 -58 33 -118 37 -166 13z"></path><path id="pG9mG886K" d="M20685 12334 c-175 -62 -227 -312 -92 -446 56 -57 100 -73 197 -73 97 0 141 16 195 72 49 51 69 99 73 181 10 170 -101 283 -272 281 -34 0 -79 -7 -101 -15z m176 -37 c19 -12 45 -44 59 -72 21 -43 25 -64 25 -145 0 -81 -4 -102 -25 -145 -14 -28 -40 -60 -59 -72 -72 -48 -156 -18 -201 72 -22 43 -25 63 -25 150 0 88 3 105 25 145 48 86 131 114 201 67z"></path><path id="pzf9odWiL" d="M4420 12320 c0 -5 12 -13 28 -16 60 -15 62 -21 62 -205 0 -178 -5 -199 -51 -199 -10 0 -19 -7 -19 -15 0 -8 9 -15 19 -15 11 0 49 -16 86 -35 72 -37 83 -34 71 26 l-6 31 38 -30 c53 -41 76 -52 115 -52 60 0 88 58 46 95 -18 17 -24 18 -52 6 -58 -24 -90 -24 -120 0 l-29 22 4 162 c3 180 6 188 69 205 76 21 41 30 -111 30 -91 0 -150 -4 -150 -10z"></path><path id="p3Yx7TcGR" d="M5452 12318 c3 -7 17 -15 33 -20 15 -4 32 -13 36 -20 5 -7 9 -95 9 -195 l0 -183 -40 0 c-53 0 -53 -23 0 -39 42 -12 44 -15 55 -103 9 -70 59 -160 117 -213 83 -75 198 -95 234 -41 19 30 10 51 -27 66 -24 11 -34 9 -69 -9 -53 -28 -91 -27 -118 2 -32 34 -42 79 -42 189 l0 98 69 0 c71 0 88 10 75 45 -5 12 -19 14 -75 9 l-69 -7 0 181 c0 99 3 187 6 196 3 9 24 21 45 26 74 20 41 30 -102 30 -105 0 -140 -3 -137 -12z"></path><path id="pr5rHzRtq" d="M7852 12318 c3 -7 17 -15 33 -20 15 -4 32 -13 36 -20 5 -7 9 -95 9 -195 l0 -183 -40 0 c-53 0 -53 -23 0 -39 42 -12 44 -15 55 -103 9 -70 59 -160 117 -213 83 -75 198 -95 234 -41 19 30 10 51 -27 66 -24 11 -34 9 -69 -9 -53 -28 -91 -27 -118 2 -32 34 -42 79 -42 189 l0 98 69 0 c71 0 88 10 75 45 -5 12 -19 14 -75 9 l-69 -7 0 181 c0 99 3 187 6 196 3 9 24 21 45 26 74 20 41 30 -102 30 -105 0 -140 -3 -137 -12z"></path><path id="p13rdqDjHA" d="M8860 12320 c0 -5 12 -13 28 -16 60 -15 62 -21 62 -205 0 -178 -5 -199 -51 -199 -10 0 -19 -7 -19 -15 0 -8 9 -15 19 -15 11 0 49 -16 86 -35 72 -37 83 -34 71 26 l-6 31 38 -30 c53 -41 76 -52 115 -52 60 0 88 58 46 95 -18 17 -24 18 -52 6 -58 -24 -90 -24 -120 0 l-29 22 4 162 c3 180 6 188 69 205 76 21 41 30 -111 30 -91 0 -150 -4 -150 -10z"></path><path id="paK4emyZx" d="M9550 12320 c0 -6 14 -13 30 -17 59 -11 60 -15 60 -373 0 -342 -2 -354 -44 -362 -39 -6 -25 -26 36 -48 35 -12 72 -29 83 -36 11 -8 22 -14 26 -14 4 0 4 95 1 212 l-5 211 35 -26 c111 -85 249 -72 297 27 18 37 21 61 21 197 0 173 7 198 58 211 67 18 30 28 -99 28 -100 0 -130 -3 -127 -12 3 -7 14 -14 26 -16 38 -6 44 -34 40 -207 -3 -144 -5 -165 -22 -184 -44 -48 -138 -48 -200 0 l-26 20 0 154 c0 85 4 165 9 178 6 16 23 29 45 37 66 22 37 30 -104 30 -89 0 -140 -4 -140 -10z"></path><path id="pLivH70jC" d="M11302 12318 c3 -7 17 -14 31 -16 55 -7 57 -17 57 -372 0 -184 -4 -331 -10 -340 -5 -8 -24 -20 -42 -26 l-33 -11 30 -13 c17 -7 58 -26 91 -41 34 -16 63 -29 65 -29 2 0 2 175 1 389 -3 274 -1 395 7 410 6 11 26 24 43 29 17 4 33 13 36 20 3 9 -32 12 -138 12 -109 0 -141 -3 -138 -12z"></path><path id="pOfoo6yAk" d="M11620 12320 c0 -5 12 -13 28 -16 60 -15 62 -21 62 -205 0 -178 -5 -199 -51 -199 -40 0 -17 -26 39 -43 31 -10 68 -27 82 -37 14 -11 29 -20 33 -20 4 0 5 96 2 213 -4 116 -2 226 2 242 7 22 19 33 43 41 19 6 36 16 38 23 3 8 -37 11 -137 11 -86 0 -141 -4 -141 -10z"></path><path id="paW2m3Q8Z" d="M11962 12319 c2 -7 19 -17 38 -23 44 -14 48 -29 49 -198 1 -158 -6 -186 -49 -195 -43 -8 -33 -23 28 -44 29 -10 65 -27 81 -38 16 -12 32 -21 35 -21 3 0 6 18 6 40 0 42 9 50 31 24 44 -54 154 -70 220 -32 67 38 79 77 79 264 0 177 6 197 60 207 16 4 30 11 30 17 0 6 -49 10 -135 10 -133 0 -163 -8 -106 -28 48 -17 53 -38 49 -207 -3 -137 -5 -157 -24 -181 -38 -51 -118 -55 -174 -8 l-30 26 0 167 c0 174 5 196 44 203 11 1 21 9 24 16 3 9 -27 12 -128 12 -94 0 -131 -3 -128 -11z"></path><path id="p1GgGW8dtj" d="M14652 12319 c2 -7 19 -17 38 -23 44 -14 48 -29 49 -198 1 -158 -6 -186 -49 -195 -43 -8 -33 -23 28 -44 29 -10 65 -27 81 -38 16 -12 32 -21 35 -21 3 0 6 21 6 47 l0 47 28 -26 c72 -68 175 -78 182 -18 8 57 -27 82 -78 56 -42 -22 -74 -20 -106 5 l-26 20 0 162 c1 180 4 191 64 208 71 20 36 29 -110 29 -104 0 -145 -3 -142 -11z"></path><path id="pCuBnUiAM" d="M15620 12320 c0 -5 12 -13 28 -16 60 -15 62 -21 62 -205 0 -178 -5 -199 -51 -199 -35 0 -19 -27 24 -39 23 -7 61 -24 84 -37 46 -27 58 -20 48 26 -4 17 -4 30 0 30 3 0 27 -15 53 -32 42 -29 55 -33 114 -33 75 0 109 18 143 76 17 29 20 56 23 194 4 200 4 202 44 213 17 4 33 13 36 20 3 9 -30 12 -128 12 -101 0 -131 -3 -128 -12 3 -7 13 -15 24 -16 39 -7 44 -29 44 -194 0 -182 -8 -209 -65 -228 -44 -14 -90 -5 -132 27 l-33 24 0 154 c0 84 4 165 10 180 6 15 22 30 40 36 58 21 28 29 -105 29 -82 0 -135 -4 -135 -10z"></path><path id="p8606y0FL" d="M16752 12318 c3 -7 17 -15 33 -20 15 -4 32 -13 36 -20 5 -7 9 -95 9 -195 l0 -183 -40 0 c-53 0 -53 -23 0 -39 42 -12 44 -15 55 -103 9 -70 59 -160 117 -213 83 -75 198 -95 234 -41 19 30 10 51 -27 66 -24 11 -34 9 -69 -9 -53 -28 -91 -27 -118 2 -32 34 -42 79 -42 189 l0 98 69 0 c71 0 88 10 75 45 -5 12 -19 14 -75 9 l-69 -7 0 181 c0 99 3 187 6 196 3 9 24 21 45 26 74 20 41 30 -102 30 -105 0 -140 -3 -137 -12z"></path><path id="pcyym5Xqu" d="M17772 12319 c2 -7 19 -17 38 -23 44 -14 48 -29 49 -198 1 -158 -6 -186 -49 -195 -43 -8 -33 -23 28 -44 29 -10 65 -27 81 -38 16 -12 32 -21 35 -21 3 0 6 21 6 47 l0 47 28 -26 c72 -68 175 -78 182 -18 8 57 -27 82 -78 56 -42 -22 -74 -20 -106 5 l-26 20 0 162 c1 180 4 191 64 208 71 20 36 29 -110 29 -104 0 -145 -3 -142 -11z"></path><path id="pgj7WhDnL" d="M18210 12320 c0 -5 12 -13 28 -16 60 -15 62 -21 62 -205 0 -178 -5 -199 -51 -199 -10 0 -19 -7 -19 -15 0 -8 9 -15 19 -15 11 0 49 -16 86 -35 72 -37 83 -33 71 26 l-6 30 33 -24 c100 -75 207 -76 265 -2 l22 27 35 -26 c97 -74 207 -76 271 -4 36 40 44 84 44 248 0 172 3 180 63 194 15 3 27 11 27 16 0 6 -53 10 -135 10 -74 0 -135 -4 -135 -8 0 -5 15 -15 33 -23 40 -17 44 -36 46 -189 1 -192 -19 -234 -111 -234 -30 0 -67 8 -86 17 l-32 18 2 187 3 187 33 14 c17 8 32 18 32 23 0 4 -56 8 -125 8 -69 0 -125 -4 -125 -8 0 -5 15 -15 33 -23 l32 -14 3 -166 c1 -96 -2 -178 -8 -193 -22 -59 -122 -70 -187 -20 l-33 25 1 152 c1 84 4 163 8 177 4 15 20 31 39 39 17 8 32 18 32 23 0 4 -61 8 -135 8 -82 0 -135 -4 -135 -10z"></path><path id="pxlzDYIAq" d="M20170 12322 c0 -5 17 -16 38 -24 48 -19 52 -34 52 -212 0 -142 -9 -176 -48 -186 -37 -8 -27 -23 28 -42 28 -9 67 -27 86 -38 19 -12 34 -18 35 -13 1 4 0 109 -1 233 -2 248 -2 249 63 264 15 3 27 11 27 16 0 6 -55 10 -140 10 -77 0 -140 -4 -140 -8z"></path><path id="p11c4hFmsl" d="M21140 12320 c0 -5 12 -13 28 -16 60 -15 62 -21 62 -205 0 -178 -5 -199 -51 -199 -35 0 -19 -27 24 -39 23 -7 61 -24 84 -37 46 -27 58 -20 48 26 -4 17 -4 30 0 30 3 0 27 -15 53 -32 42 -29 55 -33 114 -33 75 0 109 18 143 76 17 29 20 56 23 194 4 200 4 202 44 213 17 4 33 13 36 20 3 9 -30 12 -128 12 -101 0 -131 -3 -128 -12 3 -7 13 -15 24 -16 39 -7 44 -29 44 -194 0 -182 -8 -209 -65 -228 -44 -14 -90 -5 -132 27 l-33 24 0 154 c0 84 4 165 10 180 6 15 22 30 40 36 58 21 28 29 -105 29 -82 0 -135 -4 -135 -10z"></path><path id="pkzJ6YZam" d="M13627 12273 c-4 -3 -7 -44 -7 -89 l0 -83 -87 -3 c-88 -3 -88 -3 -91 -30 l-3 -28 90 0 90 0 3 -92 3 -93 28 -3 27 -3 0 95 0 96 96 0 95 0 -3 28 -3 27 -92 3 -93 3 0 89 c0 88 -1 90 -23 90 -13 0 -27 -3 -30 -7z"></path><path id="pHlqAvVZp" d="M11721 11634 c-26 -33 -26 -49 -1 -74 24 -24 48 -25 78 -4 28 19 29 57 2 84 -27 27 -55 25 -79 -6z"></path><path id="pGIGY98lZ" d="M20272 11644 c-43 -30 -18 -104 36 -104 19 0 62 42 62 62 0 14 -47 58 -62 58 -8 0 -24 -7 -36 -16z"></path><path id="pY3Y9Zoju" d="M15195 9360 c-171 -27 -308 -91 -292 -134 3 -8 64 -44 134 -80 206 -105 253 -157 253 -284 0 -91 -24 -177 -120 -432 -45 -118 -95 -249 -110 -290 -15 -41 -85 -221 -155 -400 -70 -179 -133 -351 -142 -384 -19 -74 -11 -118 28 -150 44 -37 102 -51 211 -49 165 2 182 21 328 364 148 349 183 422 215 447 36 29 103 30 137 2 24 -18 130 -263 262 -607 71 -183 95 -198 319 -198 102 0 110 1 128 24 24 29 25 103 4 185 -17 66 -591 1508 -637 1601 -79 158 -220 325 -313 370 -45 21 -168 29 -250 15z"></path><path id="pIitfalqa" d="M8006 8779 c-394 -57 -671 -300 -741 -648 -24 -115 -16 -307 15 -406 80 -253 280 -437 578 -534 140 -45 214 -56 387 -56 189 0 281 19 434 91 339 159 525 452 508 798 -6 123 -22 188 -73 290 -122 243 -362 406 -678 461 -96 16 -330 19 -430 4z m329 -354 c166 -44 272 -159 310 -342 52 -245 -40 -485 -220 -574 -172 -84 -394 -52 -520 75 -179 182 -182 558 -5 735 104 104 278 146 435 106z"></path><path id="povmjeCUB" d="M4555 8774 c-16 -3 -64 -12 -105 -20 -423 -90 -650 -380 -650 -829 0 -181 45 -320 150 -458 154 -204 438 -337 718 -337 361 0 654 165 796 447 73 146 73 327 0 406 -57 62 -56 62 -424 59 -201 -2 -364 1 -408 7 -155 23 -219 86 -210 206 10 119 70 204 183 256 109 52 185 63 440 64 300 2 275 -1 275 34 0 61 -89 115 -245 147 -68 15 -453 28 -520 18z m317 -915 c87 -28 158 -127 158 -219 0 -56 -36 -134 -81 -177 -58 -55 -142 -87 -229 -87 -150 0 -281 72 -327 181 -18 44 -17 155 2 200 30 70 70 98 163 113 72 11 265 5 314 -11z"></path><path id="pJ4BisnD2" d="M6490 8773 c-97 -16 -272 -92 -386 -168 -188 -126 -295 -297 -325 -520 -37 -285 56 -549 252 -717 81 -70 225 -156 294 -177 220 -68 676 -39 741 47 17 22 18 83 2 104 -10 11 -47 18 -149 26 -221 18 -356 73 -459 189 -101 112 -142 238 -143 433 0 142 17 213 73 300 106 165 350 270 660 283 54 2 55 3 58 34 2 17 -6 49 -17 70 -22 45 -63 61 -215 88 -82 14 -320 19 -386 8z"></path><path id="phGs6Pn5a" d="M11915 8774 c-154 -23 -306 -74 -410 -139 -83 -51 -184 -155 -234 -238 -42 -71 -86 -200 -101 -292 -17 -105 -14 -281 5 -361 87 -357 445 -614 855 -614 262 0 492 89 655 255 39 40 85 97 104 128 102 172 119 365 39 461 -59 72 -53 71 -433 67 -360 -3 -443 4 -521 40 -70 33 -89 68 -89 164 0 71 4 86 31 135 84 150 271 205 671 198 186 -3 201 0 189 46 -14 57 -89 98 -237 131 -72 16 -450 30 -524 19z m280 -909 c80 -17 128 -50 163 -113 87 -156 -26 -340 -230 -373 -147 -24 -318 53 -369 166 -21 46 -26 166 -8 212 13 35 46 71 82 89 62 33 250 42 362 19z"></path><path id="p11q4KY2dv" d="M17821 8770 c-264 -34 -578 -182 -785 -371 -240 -220 -370 -557 -352 -909 10 -192 46 -342 117 -483 118 -234 339 -432 615 -552 308 -133 982 -117 1212 28 59 38 102 100 102 148 0 73 -25 79 -215 55 -529 -69 -817 16 -1056 312 -81 101 -121 173 -151 277 -20 70 -23 102 -23 250 0 245 30 367 128 512 165 247 369 370 687 413 53 7 186 11 351 8 306 -4 299 -5 299 76 -1 77 -30 132 -82 155 -57 24 -154 47 -274 66 -118 19 -469 28 -573 15z"></path><path id="p1Bezprt52" d="M22687 8766 c-296 -53 -505 -191 -611 -406 -64 -130 -87 -226 -93 -385 -7 -160 10 -255 66 -370 102 -213 290 -365 546 -441 119 -35 299 -43 432 -20 276 48 499 200 606 413 54 109 71 182 65 279 -6 92 -40 154 -101 186 -41 22 -47 22 -377 20 -367 -4 -444 3 -527 44 -71 34 -98 87 -90 174 10 116 71 200 182 251 110 52 185 63 445 64 295 2 270 -1 270 36 0 60 -88 112 -245 145 -101 22 -466 27 -568 10z m266 -886 c135 -16 195 -49 238 -132 64 -125 -1 -285 -144 -349 -73 -33 -226 -34 -308 -1 -142 57 -211 179 -180 322 22 103 79 144 219 159 42 5 79 9 82 10 3 0 45 -4 93 -9z"></path><path id="pCLox3CdT" d="M3187 8756 c-98 -27 -141 -80 -222 -272 -86 -206 -198 -432 -242 -488 -63 -82 -100 -106 -182 -118 -86 -13 -191 1 -231 30 -37 28 -67 89 -79 162 -6 36 -11 171 -11 300 0 272 -6 297 -81 347 l-42 28 -276 3 c-152 2 -311 2 -354 0 l-78 -3 136 -175 135 -175 0 -815 0 -815 -135 -173 c-74 -94 -135 -174 -135 -177 0 -10 1186 -5 1344 5 557 36 836 236 837 600 0 110 -12 174 -47 245 -34 66 -55 93 -158 197 -108 111 -130 151 -124 232 4 65 9 77 163 431 102 235 193 461 201 503 9 46 -19 90 -74 115 -60 27 -269 35 -345 13z m-528 -1291 c92 -22 173 -69 235 -136 157 -170 98 -397 -134 -513 -91 -45 -164 -60 -270 -54 -103 6 -162 29 -208 82 -43 49 -59 90 -72 187 -18 132 3 264 55 339 64 92 233 133 394 95z"></path><path id="pS9lCudXb" d="M19335 8764 c-11 -2 -45 -9 -75 -15 -135 -27 -271 -123 -326 -231 -55 -109 -66 -261 -28 -406 40 -154 150 -260 321 -309 47 -13 108 -16 323 -17 258 -1 266 -2 313 -25 63 -31 87 -70 87 -141 0 -113 -76 -210 -194 -250 -79 -26 -246 -42 -361 -34 -104 7 -161 -4 -194 -40 -30 -31 -22 -70 17 -90 46 -23 200 -55 327 -67 142 -13 314 -5 471 21 143 25 206 49 288 111 110 83 162 171 198 332 19 84 21 133 25 572 4 472 4 481 -17 513 -31 51 -71 62 -213 62 -119 0 -127 -1 -180 -30 -70 -37 -148 -40 -252 -10 -138 41 -211 52 -360 55 -82 2 -159 2 -170 -1z m482 -265 c100 -48 155 -137 169 -271 9 -91 -7 -138 -62 -187 -60 -53 -128 -75 -229 -75 -62 0 -92 5 -132 23 -109 48 -185 170 -187 302 -1 57 3 72 29 115 34 54 110 107 179 123 68 16 163 4 233 -30z"></path><path id="pEKYtPoBQ" d="M9936 8735 c-46 -16 -107 -74 -142 -133 -29 -49 -410 -1008 -460 -1158 -35 -105 -44 -196 -24 -235 19 -34 67 -50 174 -56 128 -7 167 0 212 39 54 47 79 100 140 289 91 282 181 506 235 585 15 23 42 47 59 54 28 11 34 11 58 -7 14 -10 34 -30 44 -44 40 -54 213 -501 268 -695 50 -178 153 -241 359 -220 78 8 107 25 128 74 31 74 17 123 -194 662 -248 636 -284 716 -351 784 -65 68 -93 76 -292 75 -123 0 -186 -4 -214 -14z"></path><path id="pPmYfkjX8" d="M13395 8741 c-51 -9 -102 -36 -115 -60 -6 -13 -10 -222 -11 -598 l0 -578 -134 -170 -133 -170 321 -3 c304 -2 322 -1 359 18 48 25 67 25 126 0 102 -42 172 -54 317 -53 148 0 234 16 344 64 54 23 101 69 101 98 0 39 -34 53 -147 61 -262 20 -462 134 -547 312 -60 127 -66 180 -66 603 0 427 1 418 -76 456 -40 19 -66 23 -173 25 -69 2 -144 -1 -166 -5z"></path><path id="p100G13q6G" d="M20822 8683 c30 -37 92 -115 137 -173 l82 -104 -3 -366 c-3 -357 -4 -366 -26 -415 -30 -65 -64 -99 -137 -138 -86 -46 -125 -88 -125 -135 0 -51 37 -85 157 -147 142 -72 155 -94 172 -299 9 -104 15 -129 46 -193 62 -131 178 -221 342 -264 100 -27 345 -37 383 -17 61 33 26 94 -107 186 -161 109 -217 192 -217 317 1 128 62 210 195 260 124 46 169 85 169 144 0 45 -76 108 -182 150 -69 28 -129 78 -154 128 -18 35 -19 74 -24 528 l-5 490 -23 38 c-45 71 -48 72 -410 75 l-324 3 54 -68z"></path><path id="pflKhPG4m" d="M14685 5896 c-55 -17 -85 -34 -118 -65 -61 -56 -57 28 -57 -1294 0 -1347 4 -1267 -67 -1365 -33 -45 -131 -115 -793 -561 -415 -280 -866 -585 -1002 -676 l-246 -167 -854 574 c-469 316 -923 621 -1008 678 -85 58 -168 118 -183 135 -59 64 -57 18 -59 1366 l-3 1235 -27 41 c-19 28 -45 50 -85 70 l-58 28 -475 3 c-278 2 -471 -1 -465 -6 6 -5 121 -93 258 -196 l247 -187 0 -955 c0 -761 -3 -954 -12 -948 -7 4 -28 18 -45 31 -111 82 -243 84 -327 5 -34 -33 -142 -191 -162 -238 -32 -76 -8 -200 49 -252 33 -30 2916 -1973 2966 -1999 64 -33 139 -31 216 5 82 39 2981 1994 3027 2042 52 53 75 134 59 206 -31 136 -171 232 -298 204 -25 -6 -65 -23 -87 -38 -23 -15 -47 -31 -53 -36 -10 -6 -13 195 -13 991 l1 998 190 170 c104 94 199 180 211 193 l21 22 -354 -1 c-255 0 -365 -4 -394 -13z"></path></g></g><g id="l7ewNIKxrHcRBtYt9qZmPYd" fill="rgb(185,71,49)" style="transform: none;"><g style="transform: none;"><path id="p199AEqNSI" d="M2025 10997 c-167 -43 -273 -169 -283 -338 -12 -209 114 -365 326 -401 246 -41 456 116 470 352 10 174 -77 310 -235 370 -71 27 -206 35 -278 17z m190 -38 c57 -16 127 -89 155 -164 29 -76 32 -222 7 -306 -33 -111 -113 -186 -208 -196 -75 -7 -133 11 -184 58 -119 110 -138 369 -38 521 54 82 161 116 268 87z"></path><path id="p1Bupw6e3r" d="M3076 11001 c-5 -7 -189 -481 -220 -565 -3 -10 -8 -17 -11 -14 -2 2 -14 107 -26 232 -24 257 -23 267 38 286 21 6 44 13 50 15 7 3 10 10 8 17 -4 10 -41 13 -150 13 -131 0 -145 -2 -145 -17 0 -12 8 -18 21 -18 44 0 88 -31 99 -69 12 -46 50 -399 50 -468 0 -60 -21 -90 -70 -100 -19 -3 -30 -12 -30 -22 0 -14 15 -16 117 -14 l118 2 102 261 c56 144 103 263 105 265 1 2 52 -117 112 -263 l110 -267 118 0 c103 0 118 2 118 16 0 11 -12 19 -35 23 -65 13 -67 22 -55 297 14 306 14 305 50 324 16 8 38 15 50 15 12 0 20 7 20 18 0 16 -15 17 -175 17 -160 0 -175 -1 -175 -17 0 -11 8 -18 20 -18 12 0 35 -7 52 -16 l31 -16 -7 -246 c-4 -136 -11 -250 -14 -254 -4 -4 -62 126 -128 290 -67 163 -126 298 -132 300 -6 2 -13 -1 -16 -7z"></path><path id="pCBNKH9L3" d="M5195 10997 c-167 -43 -273 -169 -283 -338 -12 -209 114 -365 326 -401 246 -41 456 116 470 352 10 174 -77 310 -235 370 -71 27 -206 35 -278 17z m190 -38 c57 -16 127 -89 155 -164 29 -76 32 -222 7 -306 -33 -111 -113 -186 -208 -196 -75 -7 -133 11 -184 58 -119 110 -138 369 -38 521 54 82 161 116 268 87z"></path><path id="phSAAebyg" d="M10045 10993 c-44 -9 -81 -17 -81 -17 -1 -1 -5 -45 -9 -98 -9 -118 2 -126 43 -35 34 73 62 101 117 116 128 35 216 -23 202 -132 -7 -52 -52 -97 -147 -149 -159 -87 -202 -134 -202 -217 0 -36 7 -63 26 -96 50 -85 139 -122 265 -110 111 10 121 16 122 67 0 24 4 65 8 91 11 65 -14 61 -39 -7 -32 -82 -77 -116 -154 -116 -61 0 -105 37 -113 96 -5 36 -1 45 27 78 18 20 54 49 79 63 200 113 241 156 241 253 0 89 -44 161 -125 202 -52 28 -156 32 -260 11z"></path><path id="py84iILB1" d="M10890 10999 c-262 -53 -389 -342 -248 -561 94 -147 252 -204 490 -178 l117 12 6 47 c4 25 10 67 14 94 11 62 -6 62 -38 1 -75 -140 -301 -166 -413 -47 -15 15 -39 55 -55 88 -26 55 -28 69 -28 180 0 104 4 127 24 173 44 97 139 162 239 162 114 0 201 -44 254 -131 48 -77 58 -64 34 44 l-20 93 -90 14 c-119 17 -230 21 -286 9z"></path><path id="pzb2h09Ps" d="M12730 10999 c-111 -22 -212 -100 -261 -202 -87 -184 -12 -410 164 -497 128 -63 276 -63 403 0 222 109 270 422 93 598 -95 93 -245 131 -399 101z m205 -53 c62 -29 86 -55 122 -131 26 -56 28 -69 28 -180 -1 -132 -16 -188 -69 -258 -92 -120 -288 -112 -373 16 -43 65 -54 104 -60 219 -4 81 -2 109 16 169 49 158 197 231 336 165z"></path><path id="pH2IBRQ0o" d="M13650 10999 c-111 -22 -212 -100 -261 -202 -87 -184 -12 -410 164 -497 128 -63 276 -63 403 0 222 109 270 422 93 598 -95 93 -245 131 -399 101z m205 -53 c62 -29 86 -55 122 -131 26 -56 28 -69 28 -180 -1 -132 -16 -188 -69 -258 -92 -120 -288 -112 -373 16 -43 65 -54 104 -60 219 -4 81 -2 109 16 169 49 158 197 231 336 165z"></path><path id="pZDwHq9KY" d="M16400 10999 c-111 -22 -212 -100 -261 -202 -87 -184 -12 -410 164 -497 128 -63 276 -63 403 0 222 109 270 422 93 598 -95 93 -245 131 -399 101z m205 -53 c62 -29 86 -55 122 -131 26 -56 28 -69 28 -180 -1 -132 -16 -188 -69 -258 -92 -120 -288 -112 -373 16 -43 65 -54 104 -60 219 -4 81 -2 109 16 169 49 158 197 231 336 165z"></path><path id="pTH9G4hTc" d="M20170 10999 c-262 -53 -389 -342 -248 -561 94 -147 252 -204 490 -178 l117 12 6 47 c4 25 10 67 14 94 11 62 -6 62 -38 1 -75 -140 -301 -166 -413 -47 -15 15 -39 55 -55 88 -26 55 -28 69 -28 180 0 104 4 127 24 173 44 97 139 162 239 162 114 0 201 -44 254 -131 48 -77 58 -64 34 44 l-20 93 -90 14 c-119 17 -230 21 -286 9z"></path><path id="piSq3TaPN" d="M21000 10999 c-111 -22 -212 -100 -261 -202 -87 -184 -12 -410 164 -497 128 -63 276 -63 403 0 222 109 270 422 93 598 -95 93 -245 131 -399 101z m205 -53 c62 -29 86 -55 122 -131 26 -56 28 -69 28 -180 -1 -132 -16 -188 -69 -258 -92 -120 -288 -112 -373 16 -43 65 -54 104 -60 219 -4 81 -2 109 16 169 49 158 197 231 336 165z"></path><path id="ppQtt2gXn" d="M21933 10998 c-6 -7 -64 -150 -128 -318 -65 -168 -125 -315 -133 -328 -8 -12 -34 -28 -61 -36 -25 -7 -46 -19 -46 -25 0 -10 44 -13 173 -14 158 -2 172 -1 172 16 0 11 -8 17 -21 17 -38 0 -59 19 -59 53 0 31 149 447 160 447 11 0 170 -398 170 -425 0 -40 -17 -63 -52 -70 -42 -9 -48 -13 -42 -28 3 -9 43 -12 144 -12 127 0 140 2 140 18 0 12 -8 17 -26 17 -52 0 -83 52 -223 371 -73 167 -139 310 -146 317 -10 11 -14 11 -22 0z"></path><path id="pP0Rjg9Cm" d="M740 10969 c0 -11 12 -18 39 -23 26 -4 47 -15 60 -32 20 -25 21 -39 21 -286 l0 -259 -24 -24 c-13 -13 -40 -27 -60 -30 -24 -5 -36 -13 -36 -24 0 -14 20 -16 182 -15 145 1 183 4 183 15 0 7 -17 17 -37 22 -65 15 -73 33 -76 173 l-4 124 186 0 186 0 0 -125 c0 -141 -7 -158 -74 -171 -24 -4 -36 -12 -36 -23 0 -14 20 -16 182 -15 140 1 183 5 183 14 0 7 -20 19 -45 26 -25 7 -50 21 -57 31 -18 24 -18 542 0 566 7 10 32 24 57 31 25 7 45 19 45 26 0 10 -41 13 -183 14 -167 1 -182 0 -182 -16 0 -11 8 -18 20 -18 29 0 76 -26 84 -45 3 -9 6 -70 6 -136 l0 -119 -186 0 -186 0 4 124 c3 140 11 158 76 173 20 5 37 15 37 22 0 11 -36 14 -183 15 -162 1 -182 -1 -182 -15z"></path><path id="phm3m0Elw" d="M3730 10968 c0 -11 8 -18 20 -18 29 0 78 -27 90 -49 6 -12 10 -119 10 -276 l0 -256 -24 -24 c-13 -13 -40 -27 -60 -30 -24 -5 -36 -13 -36 -24 0 -14 27 -16 287 -14 l287 3 17 82 c9 46 18 89 20 97 2 7 -1 15 -8 18 -6 2 -20 -15 -31 -39 -37 -84 -114 -124 -225 -116 -86 6 -91 15 -95 158 l-4 120 54 0 c105 0 158 -33 158 -100 0 -12 7 -20 18 -20 15 0 17 13 16 137 -1 109 -4 138 -15 138 -7 0 -17 -16 -22 -36 -14 -61 -43 -79 -132 -86 l-77 -6 4 137 c3 131 4 139 27 157 26 22 111 26 172 9 67 -19 139 -80 185 -156 5 -9 15 -15 21 -11 6 4 -5 45 -32 112 l-43 106 -291 2 c-271 2 -291 1 -291 -15z"></path><path id="pl44gtgBR" d="M5840 10969 c0 -11 12 -18 39 -23 26 -4 47 -15 60 -32 20 -25 21 -39 21 -286 l0 -259 -24 -24 c-13 -13 -40 -27 -60 -30 -24 -5 -36 -13 -36 -24 0 -14 28 -16 288 -16 l288 0 22 95 c26 112 26 110 8 110 -8 0 -17 -11 -20 -25 -4 -14 -23 -43 -42 -65 -40 -44 -107 -70 -180 -70 -97 0 -114 28 -114 183 l0 100 71 -6 c82 -7 104 -21 119 -79 6 -21 17 -38 24 -38 9 0 13 33 13 140 0 154 -10 176 -40 90 -21 -59 -40 -71 -125 -78 l-64 -5 3 135 c4 153 8 161 78 182 25 7 46 19 46 26 0 10 -42 13 -188 14 -166 1 -187 -1 -187 -15z"></path><path id="pzf0CGphv" d="M7073 10977 c-8 -13 7 -22 53 -35 69 -20 69 -17 72 -296 2 -138 1 -266 -3 -283 -7 -41 -38 -51 -114 -35 -68 15 -119 53 -150 115 -13 26 -30 47 -38 47 -10 0 -13 -6 -8 -17 12 -33 55 -185 55 -198 0 -9 12 -10 53 -3 28 6 174 8 324 6 l272 -3 11 70 c7 39 15 87 20 107 6 28 4 38 -7 42 -8 3 -16 -2 -20 -12 -25 -74 -54 -122 -83 -137 -42 -22 -131 -31 -158 -16 -22 12 -22 15 -22 285 0 261 1 274 21 300 13 17 34 28 60 32 27 5 39 12 39 23 0 14 -21 16 -186 16 -102 0 -188 -4 -191 -8z"></path><path id="p4BVG0jDt" d="M7720 10969 c0 -11 12 -18 39 -23 26 -4 47 -15 60 -32 20 -25 21 -39 21 -286 l0 -259 -24 -24 c-13 -13 -40 -27 -60 -30 -24 -5 -36 -13 -36 -24 0 -14 20 -16 182 -15 145 1 183 4 183 15 0 7 -17 17 -37 22 -65 15 -73 33 -76 173 l-4 124 186 0 186 0 0 -125 c0 -141 -7 -158 -74 -171 -24 -4 -36 -12 -36 -23 0 -14 20 -16 182 -15 140 1 183 5 183 14 0 7 -20 19 -45 26 -25 7 -50 21 -57 31 -18 24 -18 542 0 566 7 10 32 24 57 31 25 7 45 19 45 26 0 10 -41 13 -183 14 -167 1 -182 0 -182 -16 0 -11 8 -18 20 -18 29 0 76 -26 84 -45 3 -9 6 -70 6 -136 l0 -119 -186 0 -186 0 4 124 c3 140 11 158 76 173 20 5 37 15 37 22 0 11 -36 14 -183 15 -162 1 -182 -1 -182 -15z"></path><path id="pdGIuKbvL" d="M8733 10978 c-8 -14 7 -26 42 -32 20 -4 45 -16 56 -27 18 -18 19 -35 19 -289 0 -304 3 -293 -78 -316 -20 -6 -37 -16 -37 -23 0 -8 75 -12 286 -14 l287 -2 16 80 c9 44 19 90 22 103 12 43 -21 22 -46 -31 -34 -69 -86 -98 -184 -105 -62 -4 -75 -1 -98 18 -28 21 -28 22 -28 142 l0 121 76 -6 c87 -6 108 -20 126 -79 6 -21 16 -38 23 -38 8 0 12 40 12 140 0 105 -3 140 -12 140 -7 0 -18 -20 -24 -45 -15 -58 -43 -76 -131 -83 l-70 -5 0 136 c0 135 0 136 26 156 33 26 119 28 187 5 55 -18 125 -78 152 -128 11 -20 25 -36 32 -36 18 0 16 12 -10 72 -13 30 -31 76 -40 103 l-17 50 -291 0 c-160 0 -293 -3 -296 -7z"></path><path id="py3qA1G3v" d="M11430 10969 c0 -11 12 -18 39 -23 26 -4 47 -15 60 -32 20 -25 21 -39 21 -286 l0 -259 -24 -24 c-13 -13 -40 -27 -60 -30 -24 -5 -36 -13 -36 -24 0 -14 20 -16 182 -15 145 1 183 4 183 15 0 7 -17 17 -37 22 -65 15 -73 33 -76 173 l-4 124 186 0 186 0 0 -125 c0 -141 -7 -158 -74 -171 -24 -4 -36 -12 -36 -23 0 -14 20 -16 182 -15 140 1 183 5 183 14 0 7 -20 19 -45 26 -25 7 -50 21 -57 31 -18 24 -18 542 0 566 7 10 32 24 57 31 25 7 45 19 45 26 0 10 -41 13 -183 14 -167 1 -182 0 -182 -16 0 -11 8 -18 20 -18 29 0 76 -26 84 -45 3 -9 6 -70 6 -136 l0 -119 -186 0 -186 0 4 124 c3 140 11 158 76 173 20 5 37 15 37 22 0 11 -36 14 -183 15 -162 1 -182 -1 -182 -15z"></path><path id="p7Sft1s4f" d="M14283 10978 c-8 -14 7 -26 42 -32 20 -4 45 -16 56 -27 18 -18 19 -35 19 -289 0 -304 3 -293 -78 -316 -20 -6 -37 -16 -37 -23 0 -10 43 -13 185 -13 142 0 185 3 185 13 0 7 -17 17 -37 23 -81 23 -78 13 -78 315 l0 270 28 21 c23 19 36 22 97 18 113 -8 175 -50 230 -159 25 -48 41 -66 52 -55 3 3 -4 54 -15 113 -12 60 -23 116 -24 126 -3 17 -22 18 -311 20 -170 1 -311 -1 -314 -5z"></path><path id="p1Bv2nStIk" d="M15393 10978 c-8 -14 7 -26 42 -32 20 -4 45 -16 56 -27 18 -18 19 -35 19 -287 0 -200 -3 -273 -13 -285 -7 -10 -32 -24 -57 -31 -25 -7 -45 -18 -45 -25 0 -9 76 -12 288 -14 l288 -2 5 25 c10 44 35 144 40 163 11 38 -25 15 -47 -30 -38 -75 -110 -113 -217 -113 -43 0 -58 5 -77 25 -24 23 -25 30 -25 141 l0 117 65 -6 c86 -8 103 -19 117 -72 8 -29 18 -45 28 -45 13 0 15 20 14 137 -1 109 -4 138 -15 138 -7 0 -17 -16 -22 -36 -13 -57 -43 -78 -120 -86 l-67 -6 0 136 c0 128 1 138 22 157 12 11 39 23 60 26 26 5 38 12 38 23 0 14 -21 16 -186 16 -102 0 -188 -3 -191 -7z"></path><path id="pPq0R4Q36" d="M17033 10978 c-8 -14 7 -26 42 -32 20 -4 45 -16 56 -27 18 -18 19 -35 19 -287 0 -200 -3 -273 -13 -285 -7 -10 -32 -24 -57 -31 -25 -7 -45 -19 -45 -26 0 -10 48 -12 225 -11 233 2 273 7 328 41 69 42 94 139 52 207 -21 35 -94 93 -118 93 -21 0 -14 13 87 164 87 129 93 136 141 153 84 30 65 43 -63 43 l-113 0 -78 -129 c-99 -165 -121 -190 -168 -198 l-38 -6 0 127 c0 144 8 161 80 172 28 5 40 12 40 23 0 14 -21 16 -186 16 -102 0 -188 -3 -191 -7z m425 -388 c81 -50 83 -213 3 -254 -41 -21 -129 -21 -153 1 -16 14 -18 33 -18 145 l0 128 68 0 c50 0 76 -5 100 -20z"></path><path id="psm9UUgFz" d="M18273 10978 c-8 -14 7 -26 42 -32 20 -4 45 -16 56 -27 18 -18 19 -35 19 -287 0 -200 -3 -273 -13 -285 -7 -10 -32 -24 -57 -31 -25 -7 -45 -19 -45 -26 0 -10 48 -12 225 -11 233 2 273 7 328 41 69 42 94 139 52 207 -21 35 -94 93 -118 93 -21 0 -14 13 87 164 87 129 93 136 141 153 84 30 65 43 -63 43 l-113 0 -78 -129 c-99 -165 -121 -190 -168 -198 l-38 -6 0 127 c0 144 8 161 80 172 28 5 40 12 40 23 0 14 -21 16 -186 16 -102 0 -188 -3 -191 -7z m425 -388 c81 -50 83 -213 3 -254 -41 -21 -129 -21 -153 1 -16 14 -18 33 -18 145 l0 128 68 0 c50 0 76 -5 100 -20z"></path><path id="p11jqQY54C" d="M19100 10968 c0 -11 8 -18 20 -18 29 0 78 -27 90 -49 6 -12 10 -119 10 -276 l0 -256 -24 -24 c-13 -13 -40 -27 -60 -30 -24 -5 -36 -13 -36 -24 0 -14 27 -16 287 -14 l287 3 17 82 c9 46 18 89 20 97 2 7 -1 15 -8 18 -6 2 -20 -15 -31 -39 -37 -84 -114 -124 -225 -116 -86 6 -91 15 -95 158 l-4 120 54 0 c105 0 158 -33 158 -100 0 -12 7 -20 18 -20 15 0 17 13 16 137 -1 109 -4 138 -15 138 -7 0 -17 -16 -22 -36 -14 -61 -43 -79 -132 -86 l-77 -6 4 137 c3 131 4 139 27 157 26 22 111 26 172 9 67 -19 139 -80 185 -156 5 -9 15 -15 21 -11 6 4 -5 45 -32 112 l-43 106 -291 2 c-271 2 -291 1 -291 -15z"></path><path id="pWnejyms5" d="M22430 10968 c0 -11 8 -18 20 -18 29 0 78 -27 90 -49 6 -12 10 -119 10 -276 l0 -256 -24 -24 c-13 -13 -40 -27 -60 -30 -24 -5 -36 -13 -36 -24 0 -14 27 -16 287 -14 l287 3 17 82 c9 46 18 89 20 97 2 7 -1 15 -8 18 -6 2 -20 -15 -31 -39 -37 -84 -114 -124 -225 -116 -86 6 -91 15 -95 158 l-4 120 54 0 c105 0 158 -33 158 -100 0 -12 7 -20 18 -20 15 0 17 13 16 137 -1 109 -4 138 -15 138 -7 0 -17 -16 -22 -36 -14 -61 -43 -79 -132 -86 l-77 -6 4 137 c3 131 4 139 27 157 26 22 111 26 172 9 67 -19 139 -80 185 -156 5 -9 15 -15 21 -11 6 4 -5 45 -32 112 l-43 106 -291 2 c-271 2 -291 1 -291 -15z"></path><path id="p1ADGWcjWP" d="M23203 10978 c-8 -14 7 -26 42 -32 20 -4 45 -16 56 -27 18 -18 19 -35 19 -287 0 -200 -3 -273 -13 -285 -7 -10 -32 -24 -57 -31 -25 -7 -45 -19 -45 -26 0 -10 48 -12 225 -11 233 2 273 7 328 41 69 42 94 139 52 207 -21 35 -94 93 -118 93 -21 0 -14 13 87 164 87 129 93 136 141 153 84 30 65 43 -63 43 l-113 0 -78 -129 c-99 -165 -121 -190 -168 -198 l-38 -6 0 127 c0 144 8 161 80 172 28 5 40 12 40 23 0 14 -21 16 -186 16 -102 0 -188 -3 -191 -7z m425 -388 c81 -50 83 -213 3 -254 -41 -21 -129 -21 -153 1 -16 14 -18 33 -18 145 l0 128 68 0 c50 0 76 -5 100 -20z"></path><path id="pMFmOjGSW" d="M24150 10968 c0 -11 8 -18 20 -18 34 0 80 -29 90 -56 6 -14 10 -70 10 -125 l0 -100 -110 -163 c-109 -163 -142 -196 -195 -196 -10 0 -15 -6 -13 -16 3 -13 28 -16 171 -17 144 -2 167 0 167 13 0 9 -13 21 -30 27 -46 17 -40 55 21 144 28 41 62 91 76 112 l26 37 41 -57 c108 -150 111 -155 107 -205 -1 -9 -16 -22 -36 -29 -19 -7 -35 -20 -35 -29 0 -13 20 -15 135 -15 118 0 135 2 135 16 0 10 -12 19 -31 23 -41 8 -75 45 -198 215 l-101 139 0 105 c0 137 6 152 67 170 26 8 48 20 48 27 0 10 -41 13 -183 14 -167 1 -182 0 -182 -16z"></path><path id="pDp9AdFjg" d="M22710 6979 c-39 -16 -70 -50 -70 -78 0 -28 202 -463 229 -495 48 -55 203 -97 357 -98 135 0 193 24 194 77 0 26 -423 498 -486 542 -75 53 -168 74 -224 52z"></path><path id="pFgPAHmJs" d="M11975 6345 c-673 -175 -1156 -699 -1281 -1390 -22 -123 -25 -422 -5 -535 55 -315 166 -575 347 -806 255 -328 605 -545 1024 -636 93 -20 133 -22 340 -22 206 0 248 2 337 22 145 32 271 75 403 138 189 91 312 176 464 323 526 510 669 1300 356 1966 -45 97 -152 279 -169 290 -5 3 12 -39 39 -92 105 -215 140 -361 147 -618 6 -220 -6 -290 -26 -151 -71 511 -455 921 -961 1027 -134 28 -335 30 -462 6 -370 -73 -684 -302 -856 -625 -50 -94 -54 -111 -11 -51 36 50 177 189 192 189 5 0 2 -10 -7 -22 -31 -44 -85 -155 -102 -214 -25 -81 -25 -257 0 -338 48 -161 147 -294 282 -379 l42 -26 -35 52 c-31 46 -73 129 -73 144 0 4 22 -17 50 -46 29 -30 74 -63 107 -79 51 -24 70 -27 158 -27 95 0 103 2 163 34 87 48 149 124 177 220 6 21 4 20 -23 -10 l-30 -34 5 65 c4 57 2 69 -19 100 -37 55 -83 80 -143 80 -124 0 -202 -128 -146 -238 11 -22 29 -45 38 -51 29 -16 10 -20 -30 -6 -210 72 -274 339 -119 498 36 37 36 38 9 28 -55 -21 -93 -44 -129 -79 -49 -46 -50 -24 -2 46 166 247 471 329 743 200 48 -22 88 -53 149 -114 45 -46 82 -82 82 -80 0 2 -9 32 -20 67 -36 119 -124 243 -223 315 -72 53 -53 57 54 11 115 -51 196 -104 283 -187 137 -130 225 -279 273 -457 23 -86 26 -117 26 -248 0 -120 -4 -165 -21 -227 -85 -314 -287 -545 -582 -665 -270 -111 -614 -83 -856 68 l-49 31 35 -36 c88 -93 296 -214 453 -266 38 -12 67 -24 64 -26 -8 -8 -176 17 -273 42 -270 66 -491 191 -690 390 -377 377 -519 932 -369 1448 133 459 488 826 948 981 130 44 90 44 -78 0z"></path></g></g><g id="lmjBIRNyAMdvAq86Hioumy" fill="rgb(255,255,255)" style="transform: none;"><g style="transform: none;"><path id="p1HGxBa1Yt" d="M19363 12289 c-45 -17 -50 -92 -8 -137 23 -25 117 -72 143 -72 2 0 1 24 -2 53 -3 28 -5 68 -6 88 0 28 -6 41 -25 53 -30 20 -73 26 -102 15z"></path></g></g></svg>
