<?xml version="1.0" standalone="no"?>
<!DOCTYPE svg PUBLIC "-//W3C//DTD SVG 20010904//EN"
 "http://www.w3.org/TR/2001/REC-SVG-20010904/DTD/svg10.dtd">
<svg version="1.0" xmlns="http://www.w3.org/2000/svg"
 width="3817.000000pt" height="2365.000000pt" viewBox="0 0 3817.000000 2365.000000"
 preserveAspectRatio="xMidYMid meet">
<g transform="translate(0.000000,2365.000000) scale(0.100000,-0.100000)"
fill="#000000" stroke="none">
<path d="M8920 21473 c-198 -33 -368 -195 -409 -391 -7 -34 -11 -207 -11 -485
0 -390 4 -467 26 -539 5 -17 -17 -18 -371 -18 -303 0 -391 -3 -452 -16 -167
-34 -300 -103 -420 -218 -128 -120 -208 -253 -255 -421 l-23 -80 -3 -2577 -2
-2578 -43 0 c-67 0 -216 -35 -295 -68 -262 -112 -460 -351 -516 -624 -14 -68
-16 -215 -16 -1204 l0 -1126 -28 7 c-162 41 -500 97 -704 116 l-127 12 -3 831
-3 831 -32 67 c-39 82 -100 145 -179 184 l-59 29 -295 0 -295 0 -61 -28 c-73
-34 -142 -101 -181 -177 l-28 -55 -3 -862 c-1 -475 -6 -863 -10 -863 -5 0 -69
-11 -143 -24 -1006 -180 -1919 -644 -2633 -1336 -165 -160 -290 -296 -420
-459 l-96 -119 -292 -4 c-312 -5 -364 -12 -490 -67 l-48 -20 0 -4596 0 -4595
50 0 50 0 0 4123 c0 4074 0 4125 20 4201 11 43 34 105 52 139 45 84 146 183
234 229 141 74 -246 68 4121 68 2163 0 3933 3 3933 6 0 3 -23 29 -51 57 -71
73 -118 148 -156 248 -57 151 -63 316 -17 469 52 177 194 348 356 431 l88 44
0 1063 0 1062 85 0 85 0 0 -1046 0 -1047 41 7 c58 9 198 -11 282 -40 221 -79
404 -277 464 -504 27 -100 24 -284 -6 -380 -39 -127 -95 -222 -184 -317 l-50
-53 709 0 c588 0 718 -3 764 -15 197 -52 353 -208 418 -415 16 -51 17 -332 19
-4193 l3 -4137 220 0 220 0 0 5068 c0 5609 -6 5135 66 5282 50 101 153 204
254 254 141 69 74 66 1508 66 l1292 0 0 4278 c0 3635 -2 4287 -14 4343 -42
198 -208 352 -406 377 -41 5 -56 12 -58 25 -7 35 119 17 224 -34 120 -57 221
-174 267 -308 l22 -66 3 -4307 2 -4308 328 0 c367 0 416 -6 543 -71 87 -43
204 -162 247 -250 67 -139 62 254 62 -4543 l0 -4348 23 16 c53 37 127 76 187
98 l65 23 2225 0 c2130 0 2228 -1 2284 -18 85 -26 163 -68 229 -122 l57 -46 0
4723 c0 4206 2 4730 15 4782 49 187 189 335 382 403 l78 28 2013 3 2012 2 0
1108 c0 936 2 1115 15 1162 50 188 201 347 395 413 l65 22 1023 3 1022 3 0
1164 0 1165 85 0 85 0 0 -1165 0 -1165 105 0 105 0 0 1165 0 1165 80 0 80 0 0
-1165 0 -1164 863 -4 c953 -3 899 0 1037 -69 75 -38 183 -140 225 -212 16 -27
40 -78 54 -115 l26 -66 3 -2647 2 -2648 1606 0 c1783 0 1660 5 1796 -67 124
-65 225 -183 276 -324 l27 -74 3 -3918 2 -3917 825 0 825 0 0 58 c0 120 62
269 149 360 225 234 579 238 806 8 39 -39 83 -94 98 -123 34 -63 67 -190 67
-255 l0 -48 140 0 140 0 0 38 c0 20 7 69 15 107 44 208 199 374 403 431 l62
17 0 2779 0 2778 -390 0 -390 0 -2 1288 -3 1287 -23 57 c-32 80 -108 160 -189
200 -58 28 -76 32 -174 36 l-109 5 0 1141 c0 1230 1 1207 -53 1298 -35 60
-107 124 -175 156 l-57 27 -577 3 -578 3 0 211 c0 161 -4 225 -16 267 -33 120
-138 223 -259 256 -50 14 -103 16 -320 13 l-260 -3 -66 -32 c-78 -39 -140
-102 -177 -181 -27 -56 -27 -61 -30 -294 l-3 -237 -267 -3 -268 -3 -66 -33
c-82 -40 -157 -119 -190 -200 l-23 -57 -3 -1167 -2 -1168 -995 0 -995 0 0
3973 c0 3680 -1 3977 -17 4023 -9 27 -26 65 -39 85 -34 55 -119 126 -182 151
l-57 23 -2422 3 -2423 2 0 1414 c0 1382 0 1415 -20 1477 -36 116 -132 212
-246 245 -44 12 -102 15 -321 12 l-269 -3 -66 -33 c-78 -38 -138 -100 -177
-182 l-26 -55 -3 -1437 -2 -1437 -408 -3 c-399 -3 -408 -4 -465 -27 -81 -32
-166 -113 -203 -193 l-29 -63 -3 -2653 -2 -2652 -38 23 c-52 32 -91 47 -148
55 l-49 7 -5 1290 -5 1290 -23 57 c-33 81 -108 160 -190 200 l-67 33 -1660 0
-1660 0 -62 -29 c-69 -31 -148 -107 -181 -172 -42 -83 -42 -95 -42 -1404 l0
-1260 -557 0 c-341 0 -583 -4 -623 -11 -155 -25 -274 -137 -310 -291 -6 -28
-10 -766 -10 -2060 l0 -2018 -680 0 -680 0 0 2585 0 2585 -380 0 -380 0 0 85
0 85 380 0 381 0 -3 68 -3 67 -377 3 -378 2 0 80 0 80 378 2 377 3 -2 180 c-1
146 -5 195 -22 260 -27 101 -94 241 -155 322 -144 191 -379 319 -618 339 l-78
7 0 2551 c0 2447 -1 2555 -19 2641 -71 344 -345 615 -689 681 -59 11 -212 14
-777 14 l-703 0 14 53 c22 82 20 942 -2 1018 -53 179 -204 321 -382 358 -38 8
-722 11 -2405 10 -1294 -1 -2363 -4 -2377 -6z m-876 -2395 c54 -16 128 -90
144 -144 7 -24 12 -100 12 -179 0 -168 -10 -205 -70 -265 -74 -75 -167 -90
-261 -42 -60 30 -105 85 -119 148 -5 21 -10 93 -10 159 0 66 5 138 10 159 14
63 59 118 119 149 60 30 110 34 175 15z m765 -14 c100 -50 131 -124 131 -312
-1 -175 -28 -247 -114 -297 -121 -71 -277 -20 -331 107 -24 58 -21 339 4 393
55 119 193 167 310 109z m702 11 c54 -19 105 -67 130 -120 16 -34 19 -65 19
-200 0 -185 -10 -218 -79 -276 -74 -64 -163 -76 -250 -33 -100 50 -131 124
-131 309 0 185 31 259 131 309 61 30 116 33 180 11z m1475 -21 c30 -18 60 -48
78 -78 29 -47 31 -54 34 -184 7 -215 -22 -293 -129 -346 -93 -46 -185 -30
-259 44 -60 60 -70 97 -70 265 0 79 5 155 12 179 15 50 89 127 138 143 60 20
142 11 196 -23z m1434 15 c56 -25 86 -53 113 -104 20 -36 22 -55 22 -210 0
-155 -2 -174 -22 -210 -27 -51 -57 -79 -113 -104 -79 -36 -183 -19 -249 42
-13 12 -34 45 -47 72 -22 46 -24 63 -24 200 0 137 2 154 24 201 53 114 184
164 296 113z m-2199 -35 c52 -29 93 -80 109 -135 6 -19 10 -99 10 -179 0 -138
-2 -149 -26 -199 -74 -148 -262 -169 -376 -43 -49 55 -61 114 -56 282 4 148
16 186 75 242 67 64 180 77 264 32z m2877 10 c47 -19 88 -58 115 -109 17 -33
22 -63 25 -174 5 -166 -6 -223 -55 -280 -60 -71 -137 -98 -223 -80 -70 15
-126 59 -156 122 -22 48 -24 64 -24 208 0 152 1 158 28 210 39 75 111 119 194
119 32 0 75 -7 96 -16z m2610 -636 l-3 -213 -145 0 -145 0 -3 213 -2 212 150
0 150 0 -2 -212z m-7480 -620 l-3 -333 -227 -3 -228 -2 0 335 0 335 230 0 230
0 -2 -332z m702 -23 l0 -335 -230 0 -230 0 0 335 0 335 230 0 230 0 0 -335z
m680 0 l0 -335 -230 0 -230 0 0 335 0 335 230 0 230 0 0 -335z m6098 -132 l2
-213 -150 0 -150 0 0 208 c0 115 3 212 7 216 4 3 70 5 147 4 l141 -3 3 -212z
m-6778 -788 l0 -335 -230 0 -230 0 0 335 0 335 230 0 230 0 0 -335z m6778 58
l2 -213 -150 0 -150 0 0 208 c0 115 3 212 7 216 4 3 70 5 147 4 l141 -3 3
-212z m9197 -192 c51 -23 111 -89 125 -138 8 -25 10 -123 8 -290 l-3 -251 -30
-43 c-17 -24 -53 -57 -80 -74 -41 -26 -58 -30 -114 -30 -75 1 -125 20 -173 69
-63 63 -68 85 -68 351 0 232 1 242 24 291 25 55 75 101 128 121 50 18 137 15
183 -6z m-9195 -691 l0 -210 -150 0 -150 0 0 210 0 210 150 0 150 0 0 -210z
m-2 -762 l-3 -213 -145 0 -145 0 -3 213 -2 212 150 0 150 0 -2 -212z m-8066
-705 c59 -27 117 -85 148 -148 36 -75 34 -180 -3 -257 -53 -108 -150 -168
-272 -168 -122 0 -219 60 -272 167 -79 163 6 362 179 419 58 19 161 12 220
-13z m13325 -672 c52 -26 109 -91 122 -138 6 -22 11 -136 11 -268 0 -220 -1
-232 -24 -280 -41 -89 -115 -135 -213 -135 -96 1 -169 46 -217 135 -20 38 -21
54 -21 280 0 274 4 295 70 361 73 73 183 91 272 45z m19 -1177 c30 -18 60 -48
79 -78 l30 -49 0 -262 0 -262 -30 -49 c-79 -126 -247 -151 -359 -52 -74 65
-81 95 -81 363 0 268 7 298 80 363 55 49 94 62 171 59 49 -2 72 -9 110 -33z
m-1727 -1484 c20 -10 50 -33 68 -52 59 -61 63 -83 63 -340 0 -128 -5 -249 -10
-269 -13 -48 -75 -118 -124 -140 -54 -25 -148 -24 -201 0 -22 10 -54 34 -72
52 -59 63 -63 83 -63 352 0 240 0 244 25 294 58 116 199 162 314 103z m796 -9
c34 -19 60 -44 80 -76 l30 -48 3 -246 c4 -276 0 -301 -56 -363 -49 -54 -102
-78 -177 -78 -71 0 -126 23 -172 71 -59 63 -63 83 -63 351 0 215 3 248 19 283
60 131 207 177 336 106z m14173 -78 c28 -17 58 -48 77 -77 28 -47 30 -55 30
-156 0 -101 -2 -109 -30 -156 -98 -158 -329 -147 -418 20 -31 60 -31 212 1
273 25 48 85 101 133 120 56 21 152 10 207 -24z m504 25 c56 -17 123 -79 145
-136 12 -30 18 -73 18 -122 0 -98 -23 -158 -81 -208 -112 -99 -280 -74 -359
52 -27 44 -30 59 -33 143 -4 85 -2 99 23 148 53 109 169 158 287 123z m-30882
-266 c0 -16 -16 -21 -117 -35 -685 -97 -1309 -501 -1815 -1175 -85 -114 -188
-271 -248 -380 -43 -77 -61 -95 -75 -72 -15 25 218 389 377 588 125 156 386
420 528 532 337 268 727 453 1100 524 219 41 250 43 250 18z m290 -56 c0 -2 2
-11 6 -19 3 -10 -4 -16 -23 -20 -55 -11 -205 -80 -288 -132 -221 -139 -418
-344 -601 -626 -86 -132 -219 -391 -275 -536 -33 -86 -47 -113 -61 -113 -10 0
-18 5 -18 10 0 20 74 198 136 329 236 494 567 867 921 1037 103 50 203 84 203
70z m1147 -67 c268 -105 566 -297 772 -496 83 -80 93 -93 81 -108 -12 -14 -23
-6 -109 78 -199 195 -533 409 -770 493 -85 30 -96 37 -87 53 11 17 29 14 113
-20z m-674 16 c11 -5 9 -20 -14 -84 -83 -236 -165 -714 -210 -1222 -11 -125
-13 -136 -30 -132 -23 6 -22 -8 -4 194 51 537 131 978 224 1222 11 29 12 30
34 22z m14642 -619 c59 -27 96 -67 120 -128 14 -37 16 -80 13 -289 l-3 -246
-30 -49 c-62 -100 -186 -140 -293 -94 -56 24 -106 74 -128 126 -20 47 -20 510
-1 557 36 85 129 147 222 147 31 0 69 -9 100 -24z m17772 -1520 c49 -25 100
-83 117 -134 22 -64 23 -469 1 -531 -56 -160 -254 -214 -376 -104 -81 74 -84
85 -84 368 0 240 1 252 22 292 26 48 86 101 134 120 43 16 146 10 186 -11z
m-33 -1258 c58 -17 138 -99 155 -158 9 -33 11 -113 9 -281 l-3 -236 -30 -49
c-57 -91 -180 -137 -280 -104 -48 16 -110 72 -138 124 -21 39 -22 53 -22 291
0 225 2 254 19 285 59 112 173 162 290 128z"/>
<path d="M20796 13856 c-56 -21 -104 -72 -121 -130 -18 -59 -21 -418 -5 -477
33 -117 148 -178 263 -140 45 15 114 92 122 135 4 17 5 135 3 263 l-3 231 -30
43 c-52 73 -148 105 -229 75z"/>
<path d="M20785 12686 c-36 -16 -81 -59 -103 -101 -14 -24 -18 -67 -20 -235
-4 -238 0 -273 34 -327 86 -132 281 -120 345 22 16 35 19 68 19 270 0 250 -6
281 -61 332 -54 50 -150 67 -214 39z"/>
<path d="M34009 11107 c-29 -16 -54 -40 -74 -72 -27 -44 -30 -56 -30 -135 0
-79 3 -91 30 -135 84 -135 280 -124 346 20 40 87 19 236 -42 292 -61 56 -157
68 -230 30z"/>
<path d="M34575 11112 c-81 -39 -115 -102 -115 -214 0 -85 21 -141 68 -180 68
-57 170 -63 240 -14 125 86 122 309 -5 396 -47 33 -133 38 -188 12z"/>
<path d="M36830 8608 c-30 -16 -55 -41 -75 -73 l-30 -48 -3 -229 c-3 -225 -3
-230 22 -283 69 -152 288 -153 357 0 16 35 19 69 19 271 0 223 -1 232 -23 275
-52 98 -173 137 -267 87z"/>
<path d="M36855 7347 c-56 -23 -84 -49 -110 -102 -26 -52 -26 -53 -23 -281 3
-209 5 -232 24 -269 61 -118 230 -140 321 -43 48 51 53 82 53 326 0 220 -1
231 -23 273 -46 86 -158 131 -242 96z"/>
<path d="M26115 13872 c-144 -50 -243 -155 -281 -297 -11 -40 -14 -262 -14
-1137 l0 -1087 533 -3 532 -3 70 -25 c141 -49 278 -168 341 -296 63 -128 58 5
61 -1836 l3 -1678 1339 0 1338 0 6 153 c4 83 14 177 22 207 49 184 195 341
373 401 51 18 99 25 197 29 l130 5 0 2620 c0 2515 -1 2622 -18 2673 -46 130
-150 234 -275 272 -63 20 -98 20 -2186 20 -1986 -1 -2124 -2 -2171 -18z"/>
<path d="M21609 11161 c-109 -35 -199 -117 -253 -230 l-31 -66 -3 -5433 -2
-5432 4750 0 4750 0 0 2455 0 2455 -840 0 -840 0 0 80 0 80 840 0 840 0 0 180
0 180 -840 0 -840 0 0 85 0 85 840 0 840 0 0 145 0 145 -840 0 -840 0 0 85 0
85 840 0 841 0 -3 488 -3 487 -31 65 c-57 119 -142 193 -262 230 -63 20 -99
20 -1698 20 l-1634 0 0 1738 c0 1901 3 1786 -56 1888 -35 60 -125 141 -191
172 l-58 27 -2610 2 c-2485 2 -2613 1 -2666 -16z m585 -932 c118 -44 220 -150
263 -271 16 -47 18 -88 18 -348 0 -283 -1 -297 -23 -355 -43 -115 -138 -211
-252 -257 -44 -18 -75 -23 -160 -23 -98 0 -110 2 -173 32 -122 58 -216 169
-247 294 -7 29 -10 145 -8 339 l3 295 31 65 c60 126 181 222 314 250 63 13
170 4 234 -21z m1219 1 c118 -44 214 -137 259 -250 21 -51 23 -74 26 -335 3
-192 0 -297 -8 -335 -28 -128 -123 -244 -247 -303 -64 -30 -75 -32 -178 -32
-103 0 -114 2 -178 32 -120 57 -210 163 -243 287 -21 77 -20 560 2 641 40 155
175 281 335 315 62 13 169 4 232 -20z m1249 19 c86 -18 158 -58 224 -123 119
-119 138 -200 132 -559 -5 -274 -11 -304 -80 -407 -169 -253 -554 -252 -719 2
-66 103 -72 133 -77 405 -6 359 13 440 132 559 110 109 247 152 388 123z
m1249 1 c137 -26 255 -118 317 -247 l37 -78 3 -278 c4 -362 -8 -420 -116 -538
-91 -99 -212 -146 -353 -136 -153 10 -286 102 -357 246 l-37 75 -3 290 c-3
249 -1 300 13 354 33 121 121 224 237 277 92 42 167 52 259 35z m-2515 -1556
c65 -18 160 -80 202 -134 18 -22 48 -71 65 -108 l32 -67 0 -315 0 -315 -32
-67 c-77 -162 -224 -258 -398 -258 -174 0 -321 96 -398 258 l-32 67 0 315 0
315 36 76 c97 203 304 295 525 233z"/>
<path d="M12279 10500 c-134 -17 -263 -112 -322 -238 l-32 -67 -3 -5098 -2
-5097 1984 0 1985 0 4 563 c3 493 5 569 20 619 16 52 17 343 15 4525 l-3 4468
-22 55 c-47 114 -144 210 -258 252 l-60 23 -1625 1 c-894 1 -1650 -2 -1681 -6z"/>
<path d="M580 8586 c-156 -42 -280 -176 -310 -336 -7 -35 -10 -1440 -10 -4151
l0 -4099 5440 0 5440 0 -2 4142 -3 4143 -31 65 c-57 119 -142 193 -262 230
-64 20 -112 20 -5141 19 -3973 0 -5086 -3 -5121 -13z m7260 -1451 l0 -645
-435 0 -435 0 0 645 0 645 435 0 435 0 0 -645z m1330 0 l0 -645 -435 0 -435 0
0 645 0 645 435 0 435 0 0 -645z m904 607 c78 -37 162 -113 198 -179 55 -102
60 -137 56 -450 l-3 -288 -36 -76 c-64 -134 -182 -224 -328 -249 -215 -38
-440 115 -490 331 -16 69 -14 563 3 625 31 116 118 224 224 278 75 38 115 46
218 42 78 -3 102 -8 158 -34z m-904 -2242 l0 -640 -435 0 -435 0 0 640 0 640
435 0 435 0 0 -640z m0 -1735 l0 -645 -435 0 -435 0 0 645 0 645 435 0 435 0
0 -645z"/>
<path d="M30520 8124 c-140 -38 -246 -141 -291 -285 -15 -47 -19 -91 -19 -195
l0 -134 143 0 c158 0 214 -11 317 -61 93 -46 205 -160 254 -259 70 -143 65
134 66 -3712 l0 -3478 1740 0 1740 0 -2 3918 -3 3917 -28 57 c-56 115 -161
202 -281 234 -79 21 -3556 19 -3636 -2z"/>
<path d="M16348 1414 c-76 -23 -167 -92 -215 -162 -78 -115 -77 -99 -81 -709
l-3 -543 340 0 340 0 3 223 c3 204 5 227 27 280 47 117 152 222 269 268 85 34
235 38 322 9 157 -53 273 -177 315 -335 11 -43 15 -111 15 -252 l0 -193 114 0
114 0 4 213 c4 192 6 218 28 272 51 132 123 210 249 273 74 37 76 37 201 37
125 0 127 0 201 -37 126 -63 198 -141 249 -273 22 -54 24 -80 28 -272 l4 -213
1134 0 1135 0 -3 557 -3 558 -32 67 c-54 115 -150 199 -262 232 -49 14 -273
16 -2250 15 -1889 0 -2203 -2 -2243 -15z"/>
</g>
</svg>
