<svg xmlns="http://www.w3.org/2000/svg" width="909" height="240" viewBox="0 0 9090 2400"><g id="l2es80zssNVa17oAXAZQfrm" fill="rgb(33,32,30)" style="transform: none;"><g><path id="p10tagrVN1" d="M2850 1816 c-73 -21 -122 -50 -176 -108 -55 -58 -94 -143 -94 -203 l0 -35 115 0 115 0 0 24 c0 29 41 81 81 101 36 19 112 19 149 0 92 -48 93 -202 1 -259 -20 -13 -76 -38 -126 -56 -164 -59 -209 -93 -266 -200 -20 -38 -24 -60 -24 -135 0 -78 4 -97 28 -147 32 -65 84 -116 159 -155 47 -24 64 -27 148 -27 79 0 103 4 145 23 58 28 144 111 169 164 18 39 37 133 28 142 -3 3 -54 5 -113 5 l-107 0 -12 -35 c-39 -119 -207 -112 -225 9 -13 85 26 119 224 191 110 41 188 105 229 187 29 58 33 78 34 142 0 142 -54 245 -169 323 -91 61 -206 79 -313 49z"></path><path id="pjVR8ElAZ" d="M7487 1819 c-54 -13 -132 -54 -176 -94 -46 -42 -98 -143 -107 -208 l-6 -48 118 3 118 3 7 33 c14 69 81 108 171 100 113 -11 163 -140 91 -236 -28 -38 -72 -62 -190 -103 -99 -35 -149 -64 -187 -109 -142 -170 -89 -418 111 -516 51 -25 69 -29 148 -29 84 0 96 3 159 34 104 53 170 143 183 250 l6 51 -115 0 -115 0 -7 -31 c-3 -17 -20 -44 -37 -60 -25 -23 -40 -29 -76 -29 -24 0 -53 5 -64 10 -27 15 -49 63 -49 109 0 63 43 99 169 145 127 47 163 67 223 124 70 68 93 126 93 242 0 85 -3 101 -29 153 -40 78 -84 127 -144 160 -98 53 -198 69 -295 46z"></path><path id="p149MMZXEp" d="M3675 1603 c-31 -109 -70 -241 -85 -293 -16 -52 -45 -151 -65 -220 -20 -69 -56 -195 -81 -280 -25 -85 -47 -161 -49 -168 -4 -10 20 -12 111 -10 l116 3 94 380 c52 209 97 387 100 395 6 15 23 -49 138 -520 l63 -255 81 -3 c61 -2 83 1 86 10 3 7 25 101 51 208 141 591 137 579 150 535 7 -22 52 -201 101 -397 l89 -358 116 0 116 0 -23 78 c-48 164 -114 391 -215 734 l-104 358 -92 0 c-68 0 -93 -3 -93 -12 0 -26 -174 -727 -180 -722 -3 3 -46 168 -96 367 l-91 362 -90 3 -89 3 -59 -198z"></path><path id="p15sjSxIfe" d="M4927 1793 c-2 -5 -2 -14 -1 -20 1 -7 2 -267 3 -578 l1 -565 310 0 310 0 1 90 c1 50 2 98 3 108 1 16 -16 17 -201 20 l-203 2 0 130 0 130 195 0 195 0 0 105 0 105 -172 2 c-95 1 -183 1 -195 0 -23 -1 -23 1 -23 134 l0 134 203 0 202 0 -2 97 c-1 54 -2 101 -3 106 0 9 -618 9 -623 0z"></path><path id="pWJbezUSu" d="M5750 1214 l0 -587 223 6 c245 6 307 16 416 70 83 40 185 139 229 224 67 128 89 297 56 432 -23 92 -88 213 -148 275 -123 127 -256 166 -573 166 l-203 0 0 -586z m454 350 c172 -42 280 -198 263 -381 -20 -205 -178 -332 -414 -333 l-73 0 0 370 0 370 83 -6 c45 -3 109 -12 141 -20z"></path><path id="pSgLbIRWS" d="M6870 1215 l0 -585 110 0 110 0 0 585 0 585 -110 0 -110 0 0 -585z"></path><path id="pdkXasMAj" d="M8118 1793 c-2 -5 -2 -268 0 -585 l2 -578 110 0 110 0 2 233 3 232 180 3 c99 1 190 0 203 -3 l22 -5 0 -230 0 -230 110 0 110 0 0 585 0 585 -110 0 -110 0 -2 -242 -3 -243 -202 -3 -203 -2 0 245 0 245 -109 0 c-61 0 -111 -3 -113 -7z"></path></g></g><g id="l6kLIFSPaAwPH4ZDdxdAz3W" fill="rgb(90,164,210)" style="transform: none;"><g><path id="pg2Bo9adi" d="M1129 2390 c-160 -18 -345 -80 -460 -152 -19 -13 -50 -32 -67 -43 -18 -10 -32 -23 -32 -27 0 -4 -7 -8 -15 -8 -9 0 -18 -7 -21 -15 -3 -8 -14 -17 -25 -20 -10 -4 -19 -13 -19 -21 0 -8 -8 -18 -17 -21 -16 -6 -63 -49 -63 -57 0 -2 -27 -32 -60 -66 -33 -34 -60 -68 -60 -75 0 -6 -9 -20 -20 -30 -38 -34 -26 -45 49 -45 l68 0 26 39 c32 48 145 163 214 218 130 102 371 192 558 208 88 8 251 -7 342 -31 105 -27 237 -86 323 -144 77 -52 250 -211 250 -231 0 -4 6 -14 13 -21 58 -63 142 -233 173 -353 22 -82 28 -129 32 -257 l4 -158 -226 0 c-217 0 -226 1 -226 19 0 11 -4 22 -9 25 -11 7 -1472 8 -1479 1 -11 -11 47 -215 83 -291 153 -325 488 -522 850 -501 100 6 253 44 320 81 17 9 35 16 40 16 33 1 241 172 231 189 -3 4 -17 6 -33 5 -15 -1 -45 -2 -65 -3 -26 -1 -48 -10 -71 -31 -19 -16 -40 -30 -46 -30 -7 0 -24 -9 -39 -20 -15 -10 -63 -33 -106 -51 -217 -86 -444 -71 -655 41 -137 73 -271 216 -338 360 -32 70 -65 183 -54 189 5 3 42 6 82 6 l73 0 8 -32 9 -33 875 0 c824 0 875 1 882 17 4 10 7 95 7 188 0 190 -21 310 -76 433 -16 35 -29 68 -29 74 0 5 -11 24 -25 42 -14 18 -25 36 -25 39 0 11 -55 92 -82 122 -16 16 -28 33 -28 37 0 13 -120 127 -198 189 -217 171 -552 262 -843 229z"></path><path id="p6k1aUnNb" d="M1195 2243 c-201 -24 -307 -55 -440 -131 -44 -25 -82 -49 -85 -52 -3 -3 -18 -16 -35 -29 -76 -58 -205 -194 -205 -216 0 -3 30 -5 66 -5 64 0 67 1 108 43 290 293 708 364 1075 183 270 -133 473 -432 497 -732 l7 -84 -157 0 -156 0 0 25 0 25 -817 -2 -817 -3 2 -89 c3 -83 15 -159 41 -264 25 -98 132 -284 221 -385 82 -92 241 -208 340 -247 19 -7 40 -17 45 -21 14 -10 148 -45 229 -59 130 -24 382 1 501 50 123 49 208 99 304 177 18 16 47 36 62 46 16 11 29 23 29 28 0 5 15 26 33 45 37 41 51 63 44 71 -3 2 -29 6 -59 8 -52 3 -54 2 -108 -49 -130 -123 -282 -209 -448 -253 -100 -27 -329 -24 -436 6 -377 102 -651 425 -684 806 l-8 85 157 0 158 0 3 -27 3 -28 813 -3 812 -2 0 89 c0 184 -62 379 -173 545 -54 79 -178 209 -252 261 -189 134 -468 212 -670 188z"></path><path id="p28jFaPI6" d="M1205 2103 c-102 -5 -230 -39 -340 -90 -56 -25 -184 -120 -224 -165 l-33 -38 72 0 c69 0 74 2 123 41 240 191 659 198 904 15 64 -48 181 -164 188 -187 4 -11 10 -19 15 -19 5 0 12 -10 16 -22 4 -13 17 -39 30 -58 23 -36 74 -176 74 -204 0 -13 -14 -16 -80 -16 -79 0 -80 0 -80 25 l0 25 -884 0 -884 0 -6 -22 c-3 -13 -6 -93 -6 -178 0 -140 3 -167 30 -275 17 -66 35 -124 40 -129 6 -6 10 -16 10 -24 0 -12 30 -76 72 -153 55 -102 182 -248 303 -345 110 -89 294 -178 445 -215 56 -14 133 -23 225 -26 137 -5 179 -1 357 36 43 9 215 78 228 91 3 3 25 16 50 29 92 49 158 98 245 186 87 86 189 221 179 236 -2 4 -32 6 -66 5 -56 -2 -63 -5 -90 -37 -90 -106 -150 -167 -215 -215 -39 -30 -76 -54 -82 -54 -5 0 -16 -6 -23 -13 -17 -17 -131 -71 -189 -90 -137 -46 -172 -51 -344 -52 -147 0 -182 3 -260 23 -203 53 -430 196 -549 345 -29 36 -33 42 -100 143 -44 65 -95 188 -120 285 -18 73 -38 244 -32 274 3 11 5 44 5 73 l1 52 225 0 225 0 1 -22 c1 -13 1 -26 0 -30 0 -5 333 -8 742 -8 l744 0 -8 53 c-9 67 -27 143 -38 165 -5 9 -21 46 -37 82 -75 167 -259 351 -424 422 -51 22 -141 53 -185 63 -42 10 -190 20 -250 18z"></path><path id="pJTIbY9Fi" d="M1070 1776 c0 -43 3 -54 18 -57 9 -2 97 -3 195 -1 l178 3 -3 52 -3 52 -192 3 -193 2 0 -54z"></path><path id="p11dHrU4Y7" d="M1070 1635 l0 -55 193 2 192 3 0 50 0 50 -192 3 -193 2 0 -55z"></path><path id="pllUePGOf" d="M1070 1495 l0 -55 195 0 195 0 0 39 c0 74 9 71 -201 71 l-189 0 0 -55z"></path><path id="p4TF4mhwm" d="M1086 992 c-12 -3 -16 -15 -16 -56 l0 -52 195 0 196 1 -3 50 -3 50 -176 5 c-97 3 -184 4 -193 2z"></path><path id="pYlzHnske" d="M1070 805 l0 -55 193 2 192 3 0 50 0 50 -192 3 -193 2 0 -55z"></path><path id="pIGIrWuvc" d="M1070 665 l0 -55 193 2 192 3 3 53 3 52 -195 0 -196 0 0 -55z"></path></g></g></svg>
